<?xml version="1.0" encoding="UTF-8"?>
<svg version="1.1" xmlns="http://www.w3.org/2000/svg" width="2000" height="2000">
<path d="M0 0 C660 0 1320 0 2000 0 C2000 660 2000 1320 2000 2000 C1340 2000 680 2000 0 2000 C0 1340 0 680 0 0 Z " fill="#000000" transform="translate(0,0)"/>
<path d="M0 0 C2.73695677 1.99951768 4.66740608 3.59534409 5.47183228 6.9927063 C5.67551379 9.4247901 5.71825378 11.81330133 5.70703125 14.25390625 C5.72215256 15.15060532 5.73727386 16.04730438 5.75285339 16.97117615 C5.79569981 19.83520357 5.8045429 22.69818474 5.8125 25.5625 C5.83566194 27.46161703 5.86103079 29.36070851 5.88867188 31.25976562 C5.98427972 38.50709325 6.01327493 45.75223564 5.9609375 53 C5.94875257 62.15087871 6.41103463 71.29733633 6.8125 80.4375 C6.8777739 81.92360275 6.8777739 81.92360275 6.94436646 83.43972778 C7.50724344 95.9651621 8.19535929 108.45959469 9.4375 120.9375 C9.54747314 122.09499756 9.65744629 123.25249512 9.77075195 124.44506836 C9.88636475 125.50346924 10.00197754 126.56187012 10.12109375 127.65234375 C10.26695923 128.99800415 10.26695923 128.99800415 10.41577148 130.37084961 C11.04177969 133.68992229 11.04177969 133.68992229 14 139 C13.34 114.91 12.68 90.82 12 66 C13.32 65.34 14.64 64.68 16 64 C18.70550048 66.70550048 18.25647095 68.11956924 18.27124023 71.90478516 C18.28142685 73.14853912 18.29161346 74.39229309 18.30210876 75.67373657 C18.30304976 76.34267567 18.30399075 77.01161476 18.30496025 77.70082474 C18.30864144 79.81647328 18.32543179 81.93166004 18.34571838 84.04721069 C18.40084772 90.06507567 18.43123459 96.08301756 18.45629883 102.10107422 C18.57151378 127.05001237 20.78538379 150.56691535 25.87742996 175.0257225 C29.10411594 190.59346975 31.11237658 206.20341043 32.91708374 221.98962402 C35.82257143 247.31908318 38.88383335 272.44361416 46 297 C46.27440918 297.9477832 46.54881836 298.89556641 46.83154297 299.87207031 C48.00371114 303.83149057 49.24279708 307.76059636 50.56640625 311.671875 C52.23300846 316.60876941 53.64968665 321.61057098 55.0625 326.625 C56.64656667 332.24621171 58.24815639 337.85769678 59.94311523 343.4465332 C68.9751491 373.39073377 73.66169561 404.27509128 78.08468628 435.16589355 C78.68379443 439.34166855 79.28926322 443.5165204 79.89453125 447.69140625 C80.13681542 449.36285326 80.37909449 451.03430101 80.62136841 452.70574951 C80.74034611 453.52648705 80.85932381 454.34722458 80.98190689 455.19283295 C81.33717802 457.64565802 81.6916176 460.09860202 82.04586792 462.55157471 C83.68824348 473.9148766 85.3925476 485.26766198 87.13540649 496.61599731 C89.96583888 515.12361824 92.55853183 533.59936858 93.515625 552.3125 C93.55741882 553.12749466 93.59921265 553.94248932 93.64227295 554.78218079 C93.84323005 558.79192614 94.0259023 562.80136276 94.17871094 566.81323242 C94.59465225 576.79724282 95.8824299 586.22582042 98 596 C98.31710937 597.48342896 98.31710937 597.48342896 98.640625 598.99682617 C99.0785406 601.00126751 99.53604515 603.00142525 100 605 C99.91435791 604.16678223 99.82871582 603.33356445 99.74047852 602.47509766 C99.3394903 598.52586465 98.94776845 594.57579192 98.5625 590.625 C98.49142029 589.89828094 98.42034058 589.17156189 98.34710693 588.42282104 C97.43235745 578.95988194 96.81369001 569.5720217 96.625 560.0625 C96.30050393 546.48154169 94.09551836 533.276216 91.92999268 519.8993988 C88.81737008 500.52901131 87.11987757 480.9353561 85.31933594 461.40722656 C85.10903642 459.16338862 84.8885877 456.92047511 84.65722656 454.67871094 C84.55635742 453.6787207 84.45548828 452.67873047 84.3515625 451.6484375 C84.25955566 450.77106934 84.16754883 449.89370117 84.07275391 448.98974609 C84.04874512 448.33312988 84.02473633 447.67651367 84 447 C85 446 85 446 87.5625 445.9375 C88.366875 445.958125 89.17125 445.97875 90 446 C92.05490971 452.13615127 92.60844685 458.11547123 93.11328125 464.546875 C93.30795935 466.84697761 93.50329623 469.14702454 93.69921875 471.44702148 C93.79895996 472.64108612 93.89870117 473.83515076 94.00146484 475.06539917 C95.68185717 494.97175008 97.56302295 514.49849455 102 534 C102.66440207 537.02534937 103.32391861 540.0517308 103.98242188 543.07836914 C104.38279215 544.89874567 104.79149093 546.7173353 105.21289062 548.53295898 C106.53223279 554.32520652 107.49200623 560.12504099 108.37109375 565.99609375 C109.73573538 574.99302991 111.69406893 583.77473504 113.84411621 592.61224365 C117.45939979 607.54081382 120.47437544 622.39342852 122.53320312 637.62353516 C123.35479722 643.5663418 124.27004401 649.49523814 125.17459106 655.4258728 C125.49616788 657.53733836 125.8156518 659.6491104 126.13452148 661.76098633 C128.01285895 674.18631492 129.98427898 686.59622053 132 699 C132.62352146 680.91787755 130.66933414 663.10724217 126.828125 645.43359375 C125.50352443 638.80235332 124.70531144 632.07529114 123.8125 625.375 C123.72187286 624.70312653 123.63124573 624.03125305 123.53787231 623.33901978 C121.78129351 610.2611556 121.78129351 610.2611556 122 606 C123 605 123 605 125.5625 604.9375 C126.366875 604.958125 127.17125 604.97875 128 605 C129.54313812 608.08627624 129.56111224 611.43411215 129.91015625 614.828125 C133.76239711 650.25272038 139.24422465 683.53642056 153.98974609 716.19189453 C155.24251529 719.0060437 156 720.8747234 156 724 C156.99644531 723.69320312 157.99289062 723.38640625 159.01953125 723.0703125 C185.12473034 715.64908017 214.3351778 720.68771825 240.11914062 726.78027344 C253.64041295 729.78298673 267.8161663 727.43597071 281.4375 726.125 C283.31179653 725.94866057 285.1861454 725.77287665 287.06054688 725.59765625 C287.98633545 725.51077545 288.91212402 725.42389465 289.8659668 725.3343811 C291.75913516 725.15695296 293.65236548 724.98018483 295.5456543 724.80404663 C300.0658093 724.38118688 304.58233398 723.94193483 309.09570312 723.45166016 C320.23718902 722.28085746 331.34481465 721.76081615 342.5390625 721.5078125 C343.27002954 721.49101063 344.00099659 721.47420876 344.75411415 721.45689774 C351.57565212 721.30228791 358.39740777 721.16170884 365.21972656 721.04638672 C382.15226847 720.75284368 398.52163158 720.36082247 415 716 C416.16402344 715.7122168 417.32804687 715.42443359 418.52734375 715.12792969 C421.42598992 714.39335362 424.30747162 713.61656884 427.1875 712.8125 C437.21224539 710.01667136 446.22635518 708.95888278 456.6262207 708.86181641 C474.70443257 708.62789169 492.4230197 706.57134275 510.34545898 704.29638672 C522.72014831 702.7295531 535.06235083 701.37795544 547.5 700.4375 C560.67497156 699.43330363 573.67645447 697.76605286 586.72851562 695.71264648 C597.1904887 694.06717861 607.4000082 692.82622964 618 693 C618.33 694.32 618.66 695.64 619 697 C614.20131346 698.76154316 609.52389587 699.70904062 604.5 700.5 C603.42878906 700.67595703 603.42878906 700.67595703 602.3359375 700.85546875 C598.92592356 701.4079623 595.51769211 701.93299075 592.09155273 702.37646484 C580.63403073 703.88532389 569.3629847 706.23031217 558.0625 708.625 C557.0154187 708.84686981 555.9683374 709.06873962 554.88952637 709.29733276 C530.27849945 714.55513449 507.8153007 722.03262882 485.8125 734.4375 C475.14460275 740.31705864 463.8476679 739.81707155 452.00146484 738.24243164 C428.81883069 735.4343863 402.76674984 740.57594968 380.9765625 748.33300781 C377.22564369 749.59875759 373.37716762 750.47171148 369.53125 751.39526367 C363.13546112 752.94190158 356.78824449 754.65354091 350.4375 756.375 C348.16671397 756.98715467 345.89588057 757.59913364 343.625 758.2109375 C340.45315137 759.06609277 337.28186406 759.92285926 334.11328125 760.79003906 C321.94572471 764.11832575 309.7185551 766.97494649 297.375 769.5625 C295.9353501 769.86604968 294.495734 770.16975967 293.05615234 770.47363281 C287.08800741 771.73123374 281.11862663 772.97709167 275.13671875 774.16796875 C264.16239629 776.45015714 254.3365339 780.19414445 244.07910156 784.69677734 C225.43355611 792.83674895 206.36740733 798.6112444 186.42041016 802.51220703 C182.0595151 803.3910721 177.74625483 804.46133677 173.42578125 805.51953125 C171 806 171 806 167 806 C167.18175781 806.78117187 167.36351562 807.56234375 167.55078125 808.3671875 C171.8062578 827.96420258 173.18746447 847.56566917 173.5625 867.5625 C173.95843067 888.33101259 174.86463944 908.40517766 179.03979492 928.81176758 C182.87125138 947.81483828 184.65611722 967.15734082 186.49731445 986.43652344 C188.29239217 1005.22016084 190.93216613 1023.24703375 195.26733398 1041.62475586 C195.52973877 1042.73858643 195.79214355 1043.85241699 196.0625 1045 C196.32168213 1046.09642822 196.58086426 1047.19285645 196.84790039 1048.32250977 C199.20032992 1058.46458089 200.91078157 1068.64593549 202 1079 C202.09498779 1079.88389404 202.18997559 1080.76778809 202.2878418 1081.6784668 C203.22156845 1091.80172367 203.18611431 1101.93844243 203.18530273 1112.09692383 C203.18752243 1115.21904496 203.20583263 1118.34083021 203.22460938 1121.46289062 C203.22753798 1123.44791547 203.22952633 1125.43294197 203.23046875 1127.41796875 C203.23765427 1128.35118454 203.24483978 1129.28440033 203.25224304 1130.24589539 C203.24916641 1131.10471817 203.24608978 1131.96354095 203.24291992 1132.84838867 C203.24434494 1133.60415695 203.24576996 1134.35992523 203.24723816 1135.13859558 C203 1137 203 1137 201 1139 C198.375 1138.625 198.375 1138.625 196 1138 C195.99383667 1136.15498901 195.99383667 1136.15498901 195.98754883 1134.27270508 C195.77047658 1090.95181571 190.07441028 1050.79746203 180.45549011 1008.61195374 C179.59110517 1004.79996879 178.77333286 1001.03989286 178.32421875 997.15234375 C178.22133545 996.31227783 178.11845215 995.47221191 178.01245117 994.60668945 C177.90521729 993.72585693 177.7979834 992.84502441 177.6875 991.9375 C175.44978147 974.80017162 171.99520978 958.11371062 166.53515625 941.7109375 C164.86035586 936.66420566 163.42745629 931.55869781 162 926.4375 C159.86083112 918.80053987 157.51034665 911.26606552 154.91601562 903.77124023 C153.68846136 900.20271993 152.61868276 896.72665377 152 893 C152.06276123 893.61311035 152.12552246 894.2262207 152.19018555 894.85791016 C152.62202362 899.11930944 153.03928029 903.37991822 153.39453125 907.6484375 C154.18033153 916.75797101 155.38660566 925.6184527 157.26147461 934.56591797 C162.12426394 957.82425688 165.68025329 981.23244414 168.81542969 1004.77734375 C171.53846321 1025.21557837 174.33295746 1045.66650919 178.55566406 1065.8581543 C179.83108667 1071.9854225 180.87734941 1078.13438853 181.875 1084.3125 C185.08606577 1104.03301728 188.82244733 1123.69732399 193.43920898 1143.13916016 C194.52980553 1147.75205781 195.41191417 1152.29531336 196 1157 C201.10467371 1155.27447649 205.42560985 1152.3795287 209.9375 1149.5 C210.78070801 1148.96391113 211.62391602 1148.42782227 212.49267578 1147.87548828 C219.84870206 1143.16266325 226.99653678 1138.22027053 234 1133 C234.83869629 1132.37762451 234.83869629 1132.37762451 235.69433594 1131.74267578 C242.30981511 1126.81234303 248.65591599 1121.67962906 254.73046875 1116.0859375 C256.8276005 1114.15845324 258.96376355 1112.29238643 261.125 1110.4375 C264.49785036 1107.50488111 267.64614251 1104.40220954 270.75 1101.1875 C272.62371811 1099.36582962 274.5295559 1097.67198118 276.51171875 1095.97265625 C282.18340911 1091.04092271 287.49745746 1085.74648428 292.8125 1080.4375 C293.34635315 1079.90432159 293.8802063 1079.37114319 294.43023682 1078.82180786 C302.25546575 1070.98085381 309.64936844 1063.09924697 316 1054 C316.41846191 1053.41524902 316.83692383 1052.83049805 317.26806641 1052.22802734 C327.57169568 1037.78916225 334.73889216 1022.64530334 340.0234375 1005.72265625 C341.16957349 1002.52722911 341.93336234 1001.44813445 345 1000 C348.1168383 1000.12721789 350.16054443 1000.35411301 352.66015625 1002.27734375 C355.30011897 1005.67158154 354.40662449 1009.91704452 354 1014 C352.40277922 1022.97662843 349.18517874 1031.48940384 346 1040 C357.57469025 1020.52016718 367.60843279 1001.12467144 376.72265625 980.39453125 C378.93341177 975.36967336 381.19547876 970.37104126 383.49609375 965.38671875 C402.10847726 924.99279198 417.03455462 882.80813208 424.625 838.875 C424.74842773 838.17052734 424.87185547 837.46605469 424.99902344 836.74023438 C428.9108564 813.18254781 427.35976435 789.44439272 424.33520508 765.90820312 C424.1947023 764.78718704 424.1947023 764.78718704 424.05136108 763.64352417 C423.79401709 761.60841725 423.52426722 759.57488999 423.25366211 757.54150391 C423.00682822 754.09533216 423.13594031 751.3397853 424 748 C427.81786316 745.45475789 432.54227241 745.18069434 437 746 C439.64619156 747.62011728 441.01533192 748.73696289 443 751 C443.88365234 751.98806641 443.88365234 751.98806641 444.78515625 752.99609375 C453.60178261 764.09643225 455.35141247 778.97265092 454.29248047 792.75976562 C453.46524451 799.09592354 451.2234181 805.04393455 449 811 C446.11494828 818.73439398 445.83552371 826.28564545 445.875 834.4375 C445.87113281 835.23220703 445.86726563 836.02691406 445.86328125 836.84570312 C445.86944983 840.63629848 445.99821387 844.32264133 446.4921875 848.08203125 C449.94751876 876.54664077 445.13736693 904.40015013 438.68603516 932.01953125 C438.12030285 934.47734618 437.58405856 936.93643779 437.07421875 939.40625 C432.88499064 958.94274509 426.11604272 978.35902368 418.80664062 996.93457031 C417.4260621 1000.46958675 416.08613824 1004.02009371 414.73876953 1007.56787109 C413.16396081 1011.71373975 411.58206606 1015.85689651 410 1020 C414.90031291 1012.51039051 419.38964209 1004.88303457 423.625 997 C424.1715625 995.99710938 424.718125 994.99421875 425.28125 993.9609375 C430.02025375 985.18584444 434.34839791 976.30358967 437.625 966.875 C438.24761719 965.08642578 438.24761719 965.08642578 438.8828125 963.26171875 C439.25148438 962.18535156 439.62015625 961.10898438 440 960 C440.26554687 959.24332031 440.53109375 958.48664062 440.8046875 957.70703125 C441.57103942 955.4811664 442.29076286 953.24476997 443 951 C443.36867188 949.85015625 443.73734375 948.7003125 444.1171875 947.515625 C447.95777922 935.19783301 450.51573439 922.65138223 453 910 C453.66 910 454.32 910 455 910 C454.37101188 921.62535184 452.96778022 933.09837392 451.375 944.625 C451.24472412 945.57297455 451.11444824 946.5209491 450.98022461 947.49765015 C449.04351688 961.41459203 446.39962425 974.81215754 442.72265625 988.3828125 C440.78481645 995.58668596 439.34868695 1002.86502319 437.9375 1010.1875 C432.42536917 1038.56354731 425.17684802 1065.962102 415 1093 C420.55114729 1084.77662489 424.71882452 1076.4895446 428.38476562 1067.27416992 C428.69865234 1066.48888916 429.01253906 1065.7036084 429.3359375 1064.89453125 C429.60970215 1064.19175049 429.8834668 1063.48896973 430.16552734 1062.76489258 C431 1061 431 1061 433 1059 C437.55555556 1059.55555556 437.55555556 1059.55555556 439 1061 C439.74703815 1066.90160141 437.44246153 1071.29563635 435 1076.5 C434.58919189 1077.38856689 434.17838379 1078.27713379 433.75512695 1079.19262695 C420.65364627 1107.1352145 400.76622067 1131.3842878 380 1154 C379.48566406 1154.56477051 378.97132812 1155.12954102 378.44140625 1155.71142578 C370.64607693 1164.26063366 362.65179834 1172.31759083 354 1180 C353.18273438 1180.75539063 352.36546875 1181.51078125 351.5234375 1182.2890625 C345.20910043 1188.10977062 338.54933058 1193.40486281 331.75390625 1198.64453125 C330.10071649 1199.92216343 328.45552864 1201.20934159 326.8125 1202.5 C320.18084087 1207.67269412 313.40142871 1212.57973936 306.50854492 1217.39819336 C301.59937737 1220.84015246 296.77918419 1224.38014043 292 1228 C273.62958024 1241.86853294 254.74363754 1255.65819281 232.98046875 1263.75097656 C230.83529926 1264.5260579 230.83529926 1264.5260579 228 1266 C226.95710245 1268.06890419 226.95710245 1268.06890419 227 1270 C271.73647062 1249.10073763 271.73647062 1249.10073763 311.41796875 1220.37109375 C313.51621424 1218.44426317 315.64072148 1216.56845856 317.79296875 1214.703125 C322.73012548 1210.39921857 327.45391497 1205.87928552 332.17578125 1201.34179688 C335.91459865 1197.79462099 339.51621409 1194.56869951 344 1192 C347.45742385 1192.15715563 348.54235443 1192.54235443 351 1195 C350.71936505 1200.19174657 348.02370925 1203.13987002 344.30859375 1206.5546875 C342.96756396 1207.73045907 341.61795869 1208.89649369 340.26171875 1210.0546875 C337.86216179 1212.11855514 335.52534577 1214.24157636 333.1875 1216.375 C327.93713524 1221.10513045 322.52042785 1225.58961769 317 1230 C316.01386719 1230.804375 315.02773437 1231.60875 314.01171875 1232.4375 C299.74394413 1243.91208855 283.62441349 1251.82126662 267.265625 1259.8828125 C262.03559277 1262.46634137 256.87982536 1265.1615711 251.75 1267.9375 C233.05763481 1278 233.05763481 1278 228 1278 C229.44780963 1286.53868648 231.90406713 1294.73547876 234.4375 1303 C234.83702417 1304.31497189 235.23611501 1305.63007552 235.63476562 1306.9453125 C236.4032912 1309.4794965 237.1754602 1312.01246882 237.94970703 1314.54492188 C238.86518048 1317.55649329 239.75793802 1320.57359855 240.64453125 1323.59375 C241.66296322 1326.99296391 242.82379247 1330.24583634 244.25 1333.5 C250.55242987 1348.36105504 255.9126903 1363.43218297 260.91650391 1378.7722168 C264.26856466 1389.01600869 267.95472384 1399.10143889 271.83198547 1409.15792847 C273.78570135 1414.27318428 274.46564307 1417.59854036 274 1423 C272 1425 272 1425 269.0625 1425.4375 C266 1425 266 1425 264.50390625 1423.01171875 C262.61562338 1419.23024838 261.25647332 1415.36402957 259.875 1411.375 C257.55598222 1404.8496952 254.93872948 1398.67430322 251.8125 1392.5 C247.44480348 1383.7495977 244.42358675 1374.63956077 241.375 1365.375 C236.15224246 1349.52812775 229.61863957 1334.57527273 222.53111267 1319.48803711 C218.6330924 1311.14601078 215.29105966 1302.5948335 212 1294 C211.60425781 1293.06671875 211.20851563 1292.1334375 210.80078125 1291.171875 C210 1289 210 1289 210 1286 C208.081875 1286.309375 208.081875 1286.309375 206.125 1286.625 C203.9453125 1286.9765625 203.9453125 1286.9765625 202 1287 C201.34 1286.34 200.68 1285.68 200 1285 C200.0625 1283 200.0625 1283 201 1281 C203.5625 1279.75 203.5625 1279.75 206 1279 C205.67 1277.68 205.34 1276.36 205 1275 C198.83877793 1276.72574771 192.82564515 1278.76230185 186.8125 1280.9375 C180.20033296 1283.31328138 173.5690365 1285.27762115 166.7578125 1287.01953125 C162.93751891 1288.01630224 159.15626719 1289.11695663 155.375 1290.25 C112.17197947 1303.04600913 69.84575406 1310.24733024 25.11181641 1314.56884766 C16.67126416 1315.40150268 8.35728202 1316.49390889 0.02702332 1318.1164856 C-4.27332937 1318.9072706 -7.73652207 1319.00016305 -12 1318 C-12 1316.35 -12 1314.7 -12 1313 C5.33363809 1307.70361058 22.35561356 1305.32118252 40.35791016 1303.6237793 C64.0262003 1301.38764187 86.75404868 1298.13686791 109.46337891 1290.80908203 C113.1165284 1289.6438715 116.78887268 1288.54486847 120.46069336 1287.44018555 C130.14546755 1284.52347589 139.79506776 1281.50224472 149.42651367 1278.41430664 C154.16727303 1276.89504725 158.91516544 1275.4178238 163.6875 1274 C182.31808304 1268.55144091 182.31808304 1268.55144091 199 1259 C199.33 1258.34 199.66 1257.68 200 1257 C193.31389575 1259.42798311 186.79866281 1262.05727016 180.35546875 1265.06323242 C130.58156729 1288.20628737 77.76717889 1297.00655384 23.44433594 1299.82080078 C20.35005856 1299.98178743 17.25710588 1300.15691016 14.1640625 1300.33984375 C12.50523755 1300.43540429 10.84638589 1300.53050327 9.1875 1300.625 C8.49599854 1300.66520264 7.80449707 1300.70540527 7.09204102 1300.74682617 C-19.58403957 1302.15324605 -46.23983714 1297.83554566 -72.32495117 1292.63671875 C-78.05655712 1291.5107045 -83.80126057 1290.53456229 -89.5703125 1289.625 C-105.2568157 1287.14224633 -120.6404136 1284.65541148 -135.78320312 1279.71582031 C-138.05957926 1278.98076141 -140.34627044 1278.29387688 -142.640625 1277.6171875 C-154.17286657 1274.17237746 -154.17286657 1274.17237746 -159 1271 C-158.67 1269.35 -158.34 1267.7 -158 1266 C-151.62321661 1266.54364282 -146.22617494 1268.13624716 -140.25 1270.375 C-125.08504348 1276.01999959 -110.19467506 1278.1197381 -94.1875 1279.9375 C-81.72877392 1281.35755155 -69.33291813 1282.84314847 -56.98828125 1285.06640625 C-41.14464966 1287.90933873 -25.85335016 1289.38509095 -9.75 1289.3125 C-8.88182648 1289.31034485 -8.01365295 1289.3081897 -7.11917114 1289.30596924 C19.4947665 1289.20078422 45.01645452 1285.48071715 71 1280 C69.72491577 1280.21148682 69.72491577 1280.21148682 68.42407227 1280.42724609 C65.1796184 1280.96341422 61.93461218 1281.49598711 58.68920898 1282.02636719 C57.30161363 1282.25383661 55.91423235 1282.48261694 54.52709961 1282.71289062 C49.69048876 1283.51518038 44.84883052 1284.27523711 40 1285 C39.33743195 1285.10103027 38.67486389 1285.20206055 37.99221802 1285.30615234 C26.13824494 1287.06755321 14.38970027 1287.30977861 2.41821289 1287.26074219 C-0.6660556 1287.25007417 -3.74973403 1287.26067339 -6.83398438 1287.2734375 C-27.14945711 1287.29004437 -47.05094948 1285.23954189 -67.125 1282.25 C-68.00098846 1282.12061035 -68.87697693 1281.9912207 -69.7795105 1281.85791016 C-114.92031382 1275.14775623 -114.92031382 1275.14775623 -134.83422852 1265.64794922 C-142.75896465 1261.89024706 -150.72752291 1258.84334856 -159.0625 1256.125 C-160.36907244 1255.69291101 -161.67563141 1255.26078124 -162.98217773 1254.82861328 C-171.77895923 1251.94134276 -180.6406282 1249.35113866 -189.5625 1246.875 C-201.34940079 1243.59315382 -212.70273447 1239.69145475 -224 1235 C-224.75361816 1234.69126953 -225.50723633 1234.38253906 -226.28369141 1234.06445312 C-243.2584185 1227.05065455 -259.90889639 1218.59958986 -274.59765625 1207.515625 C-277.12678516 1205.60873607 -279.71960346 1203.84213455 -282.37109375 1202.109375 C-283.1098877 1201.62218994 -283.84868164 1201.13500488 -284.60986328 1200.63305664 C-286.04489933 1199.69126453 -287.48702791 1198.76016463 -288.93701172 1197.84155273 C-293.76632415 1194.63787191 -293.76632415 1194.63787191 -295.01171875 1191.23828125 C-295 1189 -295 1189 -294 1188 C-288.42910273 1188.34293212 -284.43901258 1190.09955518 -279.75 1192.9375 C-278.33579062 1193.75850354 -276.92037399 1194.57743021 -275.50390625 1195.39453125 C-274.7680127 1195.8220166 -274.03211914 1196.24950195 -273.27392578 1196.68994141 C-256.19401486 1206.53005328 -238.88947694 1213.54289917 -219.9296875 1218.859375 C-217.15886025 1219.64010533 -214.44599897 1220.52502417 -211.7265625 1221.46875 C-206.39941538 1223.26375463 -200.97963925 1224.5136516 -195.5 1225.75 C-194.39285645 1226.00313965 -193.28571289 1226.2562793 -192.14501953 1226.51708984 C-181.39683688 1228.95346307 -170.61456288 1231.23195231 -159.82226562 1233.46386719 C-152.41578807 1235.00438174 -145.07007803 1236.69745971 -137.73814392 1238.5612793 C-131.83186706 1240.05834899 -125.90248803 1241.38552197 -119.9375 1242.625 C-118.51727539 1242.93050781 -118.51727539 1242.93050781 -117.06835938 1243.2421875 C-103.29002455 1246.12151802 -89.44633356 1247.3690182 -75.4375 1248.375 C-65.48768523 1249.1016215 -55.56061155 1249.87315082 -45.65625 1251.08203125 C-10.44009883 1255.35309016 28.27907341 1258.23871423 63 1249 C54.60399887 1248.21844269 46.26320991 1247.9080459 37.8359375 1247.82421875 C36.32800629 1247.80634811 36.32800629 1247.80634811 34.78961182 1247.78811646 C30.60892066 1247.73944072 26.42851005 1247.69202327 22.24755859 1247.67407227 C7.18138209 1247.59721608 -7.58285247 1246.80571584 -22 1242 C-23.3527768 1241.8229785 -24.71070884 1241.6835361 -26.0703125 1241.5703125 C-27.27905029 1241.46299805 -27.27905029 1241.46299805 -28.51220703 1241.35351562 C-29.37442871 1241.27810547 -30.23665039 1241.20269531 -31.125 1241.125 C-40.53430043 1240.24527559 -49.7267846 1238.79262785 -59 1237 C-60.05832031 1236.81308594 -61.11664062 1236.62617187 -62.20703125 1236.43359375 C-63.10808594 1236.26988281 -64.00914062 1236.10617187 -64.9375 1235.9375 C-65.68902344 1235.80214844 -66.44054687 1235.66679688 -67.21484375 1235.52734375 C-69 1235 -69 1235 -71 1233 C-71.66574776 1226.8973122 -71.66574776 1226.8973122 -69.5625 1224.0625 C-62.5617169 1221.15973627 -54.55583743 1223.46744067 -47.38012695 1224.84423828 C-38.6170451 1226.52203667 -30.06866826 1227.15758994 -21.1484375 1227.16796875 C-20.13133698 1227.17129715 -19.11423645 1227.17462555 -18.0663147 1227.17805481 C-15.92328337 1227.18309205 -13.78024428 1227.18546413 -11.63720703 1227.18530273 C-8.40513752 1227.1874797 -5.17341514 1227.20564392 -1.94140625 1227.22460938 C9.2365429 1227.25557218 19.96449569 1226.92162643 31 1225 C31.96728027 1224.84861572 32.93456055 1224.69723145 33.93115234 1224.54125977 C45.4184399 1222.71990532 56.6094452 1220.34708018 67.67236328 1216.75244141 C70.24260153 1215.92157563 72.82227949 1215.12402512 75.40234375 1214.32421875 C91.40325399 1209.27066291 106.70419136 1202.87426335 122 1196 C123.1873877 1195.46681152 124.37477539 1194.93362305 125.59814453 1194.38427734 C141.68562834 1187.11987883 157.44948464 1179.35145575 173 1171 C171.1423726 1164.12791329 169.22819834 1157.27573331 167.25 1150.4375 C164.9228584 1142.35822833 162.72056682 1134.25090524 160.5625 1126.125 C158.10447606 1116.89453745 155.45545218 1107.74593974 152.62744141 1098.62255859 C150.11428248 1090.48183419 147.82715076 1082.28666121 145.5612793 1074.07421875 C143.77625948 1067.6487513 141.86591536 1061.28198507 139.8125 1054.9375 C137.59487015 1048.08097266 135.70424618 1041.21377067 134.0546875 1034.19921875 C133.1930424 1030.61078495 132.14488219 1027.08916224 131.09765625 1023.55078125 C129.01652254 1016.32296933 127.45273897 1009.04669855 125.99316406 1001.67156982 C125.25046871 997.92662116 124.48495252 994.1863112 123.72265625 990.4453125 C123.57321564 989.70987213 123.42377502 988.97443176 123.26980591 988.21670532 C119.67283023 970.53437397 115.24617929 953.26895774 110 936 C110.10884521 936.60376465 110.21769043 937.2075293 110.32983398 937.82958984 C111.5184761 944.67291949 112.49506643 951.52957867 113.41015625 958.4140625 C116.70928044 983.03270571 120.8435703 1007.20114267 126.34353638 1031.41978455 C127.65834937 1037.27808061 128.80167985 1043.15277206 129.859375 1049.0625 C133.85758284 1071.18781958 139.82095024 1091.8932271 147.49189758 1113.02606201 C150.10866753 1120.24012016 152.50746238 1127.51268047 154.875 1134.8125 C157.76502787 1143.64120718 160.95090594 1152.28834982 164.61474609 1160.82739258 C167.64758909 1168.02514284 167.64758909 1168.02514284 167 1172 C165 1174 165 1174 162.125 1174.1875 C159 1173 159 1173 157 1169.5625 C156.29998745 1167.72066371 155.63879685 1165.863952 155 1164 C154.57203125 1162.80632812 154.1440625 1161.61265625 153.703125 1160.3828125 C147.01041162 1141.29065246 141.81125065 1121.6591491 137.00561523 1102.02050781 C135.57003624 1096.1798308 133.97196442 1090.4443397 132.125 1084.71875 C130.46309424 1079.22522819 129.03040419 1073.67301502 127.5625 1068.125 C125.35613385 1059.81297021 122.9900461 1051.65636668 120.171875 1043.53125 C118.60790129 1038.81847589 117.31506624 1034.04789423 116.01733398 1029.25634766 C114.28845913 1022.92048651 112.37844808 1016.6487612 110.4375 1010.375 C108.46549529 1003.98931199 106.60012476 997.62928882 105.0625 991.125 C97.79495863 961.24062864 86.43795942 931.90947835 76 903 C76.54392617 907.54239268 77.10428991 912.08180316 77.69238281 916.61865234 C77.89050745 918.15238864 78.08542193 919.68654477 78.27636719 921.22119141 C79.78717819 933.18840488 82.23529569 944.8456718 84.95092773 956.59326172 C87.62956956 968.20971559 90.14051901 979.85860844 92.58639526 991.52624512 C93.02175664 993.600203 93.45928524 995.67370737 93.89920044 997.7467041 C96.59010239 1010.43719753 98.9028375 1023.10770421 100.70910645 1035.95419312 C101.32017898 1040.2517665 102.01838292 1044.53401012 102.75 1048.8125 C102.90702393 1049.73426025 103.06404785 1050.65602051 103.22583008 1051.60571289 C104.85564695 1060.80366689 107.02543074 1069.86764263 109.16226196 1078.95697021 C111.43326298 1088.68447663 113.11354976 1097.99139941 113 1108 C111.68 1107.67 110.36 1107.34 109 1107 C108.87995605 1106.11666992 108.75991211 1105.23333984 108.63623047 1104.32324219 C105.88897043 1084.33518089 102.52939575 1064.67448251 98 1045 C97.51717185 1042.88192062 97.03574524 1040.76352528 96.55432129 1038.64512634 C95.3654699 1033.41450447 94.17339757 1028.18466021 92.96826172 1022.95776367 C91.11483219 1014.91656171 89.30749548 1006.86857176 87.55834961 998.80395508 C84.3102851 983.8713639 80.22243443 969.54623291 75.31640625 955.07421875 C73.73381963 950.27846535 72.37109362 945.42210541 71 940.5625 C64.52553871 917.70787511 56.85060156 895.34987593 47.33666992 873.55932617 C45 868.18735668 45 868.18735668 45 866 C-1.48901266 863.93263356 -1.48901266 863.93263356 -47 872 C-48.39439664 872.06665376 -49.79169875 872.08538199 -51.1875 872.0625 C-52.445625 872.041875 -53.70375 872.02125 -55 872 C-55 870.35 -55 868.7 -55 867 C-38.25737242 864.25808839 -21.64291253 862.48885794 -4.72613525 861.32659912 C8.34710245 860.41674474 21.09726003 858.91385816 33.96166992 856.31958008 C36 856 36 856 40 856 C40 855.01 40 854.02 40 853 C38.46090469 853.21561081 38.46090469 853.21561081 36.89071655 853.43557739 C27.18966094 854.72638016 17.73262601 855.24205163 7.95296097 855.08919907 C5.57500995 855.05334478 3.19734638 855.03349016 0.81918335 855.0173645 C-5.92957699 854.96940925 -12.67794846 854.89865405 -19.42626953 854.80810547 C-40.04169047 854.54152226 -59.67647787 855.02394204 -80 859 C-80.98158585 859.18932098 -81.96317169 859.37864197 -82.97450256 859.57369995 C-87.06081844 860.36848594 -91.13831219 861.1898414 -95.20703125 862.0703125 C-106.83546031 864.40125325 -118.07489525 865.30139375 -129.89990234 865.20581055 C-132.28884233 865.18719736 -134.67740028 865.18530404 -137.06640625 865.18554688 C-138.5911492 865.18064259 -140.11588955 865.17481909 -141.640625 865.16796875 C-142.70763641 865.16629951 -142.70763641 865.16629951 -143.79620361 865.16459656 C-148.76759462 865.11620269 -148.76759462 865.11620269 -151 864 C-151.042721 862.33388095 -151.04063832 860.66617115 -151 859 C-149.41436102 857.41436102 -147.76644279 857.85373377 -145.56640625 857.82421875 C-124.94229131 857.36590508 -104.80027732 854.93777278 -85 849 C-76.18405057 846.44115378 -67.56816948 844.49028078 -58.50048828 843.14868164 C-52.1766941 842.20986398 -45.90226123 841.08565369 -39.625 839.875 C-38.73925293 839.70419922 -37.85350586 839.53339844 -36.94091797 839.35742188 C-32.95798817 838.58469501 -28.97715541 837.80197784 -25 837 C-44.29541794 836.12440961 -63.21191703 840.54138503 -82.09606934 843.97155762 C-99.24517049 847.08493369 -116.32839397 849.80384939 -133.69799805 851.35473633 C-136.96032734 851.65118963 -139.8800767 851.96002557 -143 853 C-146.15609667 853.33547489 -149.32963768 853.42699303 -152.5 853.5625 C-153.4502002 853.6049585 -154.40040039 853.64741699 -155.37939453 853.69116211 C-167.581673 854.17905691 -179.79063302 854.09098932 -192 854 C-192 854.99 -192 855.98 -192 857 C-191.06933716 856.98428955 -191.06933716 856.98428955 -190.11987305 856.96826172 C-187.30912323 856.92669114 -184.4984381 856.90067067 -181.6875 856.875 C-180.71103516 856.85824219 -179.73457031 856.84148438 -178.72851562 856.82421875 C-177.32182617 856.81455078 -177.32182617 856.81455078 -175.88671875 856.8046875 C-174.59060669 856.78897705 -174.59060669 856.78897705 -173.26831055 856.77294922 C-171 857 -171 857 -168 859 C-166.845 859.144375 -165.69 859.28875 -164.5 859.4375 C-161 860 -161 860 -159.0625 861.125 C-157.35922782 864.13077444 -157.63292029 866.63510267 -158 870 C-161.59743246 872.39828831 -162.84251337 872.07907842 -167.0625 871.8125 C-176.27060617 871.73092209 -181.69021691 874.62714675 -188.35668945 880.87841797 C-196.8155488 889.21102569 -200.32158282 896.35061492 -202.9921875 907.8046875 C-207.22174704 925.76594324 -215.60800447 942.01149916 -224.51953125 958.046875 C-231.41682427 970.58136438 -237.77896275 983.3676091 -244.125 996.1875 C-246.33307816 1000.64074791 -248.54400525 1005.09256614 -250.7578125 1009.54296875 C-251.29174622 1010.61692398 -251.82567993 1011.69087921 -252.37579346 1012.79737854 C-255.60329866 1019.26701313 -258.90993163 1025.68700805 -262.3046875 1032.0703125 C-266.78344273 1040.49792576 -270.96343699 1049.04029398 -275 1057.6875 C-275.34006073 1058.41434998 -275.68012146 1059.14119995 -276.03048706 1059.89007568 C-287.28853964 1083.99118449 -296.54219074 1107.70084482 -302.5 1133.6875 C-305.87769169 1148.3578348 -310.67275467 1162.42482867 -316.625 1176.25 C-316.9849707 1177.11439697 -317.34494141 1177.97879395 -317.71582031 1178.86938477 C-320.32857329 1184.70290854 -320.32857329 1184.70290854 -323.6484375 1186.171875 C-326 1186 -326 1186 -328 1184 C-327.62203197 1180.27792238 -326.32241179 1177.21457217 -324.7421875 1173.8515625 C-324.05612427 1172.36148682 -324.05612427 1172.36148682 -323.35620117 1170.84130859 C-322.86740479 1169.77992676 -322.3786084 1168.71854492 -321.875 1167.625 C-314.44458876 1151.09242507 -309.7770867 1134.16541379 -305.33862305 1116.64208984 C-301.20551628 1100.68434847 -295.34939026 1085.19712756 -289 1070 C-288.63648438 1069.12794922 -288.27296875 1068.25589844 -287.8984375 1067.35742188 C-286.2086329 1063.30461632 -284.51726572 1059.25246305 -282.82617188 1055.20019531 C-271.93071057 1029.73540693 -271.93071057 1029.73540693 -265 1003 C-269.22113545 1012.29547913 -273.28766503 1021.61364003 -277 1031.125 C-280.5063639 1040.03608313 -284.54449605 1048.52973441 -289 1057 C-289.79168101 1058.51561751 -290.58334712 1060.0312428 -291.375 1061.546875 C-292.20783914 1063.13567582 -293.04118154 1064.72421292 -293.875 1066.3125 C-294.29797363 1067.11880859 -294.72094727 1067.92511719 -295.15673828 1068.75585938 C-297.18459762 1072.60717844 -299.23544171 1076.439477 -301.3671875 1080.234375 C-310.0263926 1095.83773735 -316.37309261 1112.46565117 -323 1129 C-332.28479224 1152.14385458 -341.58341867 1175.15464163 -353.43994141 1197.13427734 C-357.08541339 1203.97008261 -360.06765767 1211.00546938 -363.00390625 1218.16796875 C-367.4886234 1229.10407095 -372.21669364 1239.96228104 -377.9375 1250.3125 C-389.18660508 1270.78621007 -398.0548367 1293.46184533 -403.4543457 1316.18847656 C-404.80750765 1321.80750765 -404.80750765 1321.80750765 -407 1324 C-413.23965517 1324.56724138 -413.23965517 1324.56724138 -415.72265625 1322.71484375 C-417 1321 -417 1321 -417 1317.25 C-413.61959491 1295.62230623 -401.22980857 1274.90502726 -391.1171875 1255.84765625 C-390.63491699 1254.93781982 -390.15264648 1254.0279834 -389.65576172 1253.09057617 C-388.43177251 1250.80592866 -387.19311637 1248.53254689 -385.94189453 1246.26293945 C-379.87636634 1235.16598841 -374.91388019 1223.75824754 -370.125 1212.0625 C-369.33490939 1210.14963505 -368.54396585 1208.23712219 -367.75219727 1206.32495117 C-366.57609846 1203.4841282 -365.40061384 1200.64307069 -364.22846985 1197.8006134 C-361.62526312 1191.48980386 -358.96886237 1185.20494672 -356.27587891 1178.93188477 C-348.70700897 1161.29097795 -342.06474086 1143.33264153 -335.80078125 1125.19140625 C-333.24119206 1117.78008193 -330.61385383 1110.3923137 -328 1103 C-328.48766846 1104.11632813 -328.97533691 1105.23265625 -329.4777832 1106.3828125 C-357.38013017 1170.22538664 -357.38013017 1170.22538664 -368.76953125 1189.3515625 C-369.11344406 1189.92913803 -369.45735687 1190.50671356 -369.81169128 1191.10179138 C-371.5355038 1193.99344644 -373.2679165 1196.87900535 -375.0144043 1199.75708008 C-383.70787882 1214.21199904 -390.44734536 1229.03764315 -396.375 1244.8125 C-397.03383334 1246.54766898 -397.69326593 1248.28261054 -398.35327148 1250.01733398 C-400.24810093 1255.00685655 -402.12687252 1260.00229571 -404 1265 C-404.2461908 1265.65605225 -404.49238159 1266.31210449 -404.74603271 1266.98803711 C-407.86833762 1275.31158739 -410.93975241 1283.65347418 -414 1292 C-416.08778741 1297.68908651 -418.17799909 1303.37727868 -420.26974487 1309.06491089 C-421.15346408 1311.46987426 -422.03498713 1313.87563339 -422.91625977 1316.28149414 C-425.82740173 1324.21572962 -428.77942188 1332.13437583 -431.80078125 1340.02734375 C-432.09156052 1340.79792618 -432.38233978 1341.56850861 -432.68193054 1342.36244202 C-434.7686709 1347.7686709 -434.7686709 1347.7686709 -437 1350 C-444.10659898 1350.67681895 -444.10659898 1350.67681895 -447.0625 1348.4375 C-449.310401 1342.59295739 -446.29143251 1336.86373362 -444.19555664 1331.35205078 C-442.95078515 1327.8620135 -441.92286798 1324.35830808 -440.9140625 1320.79296875 C-437.70152497 1309.67357186 -433.99382584 1298.71743502 -430.31689453 1287.74487305 C-429.13099873 1284.20540404 -427.94988917 1280.66436604 -426.76953125 1277.12304688 C-423.0136217 1265.87333582 -419.22002868 1254.63956268 -415.2661438 1243.45768738 C-413.13229676 1237.42127377 -411.113049 1231.35261963 -409.140625 1225.26171875 C-408 1222 -408 1222 -406.5625 1218.83203125 C-404.3397711 1213.74940053 -403.13281398 1208.35707112 -401.75 1203 C-396.03932542 1181.50638651 -389.2854225 1161.11439328 -380.55419922 1140.65136719 C-378.12676606 1134.94846264 -375.74732578 1129.22600789 -373.375 1123.5 C-372.89732178 1122.34910889 -372.41964355 1121.19821777 -371.92749023 1120.01245117 C-366.32989528 1106.46988273 -360.922991 1092.85053477 -355.50683594 1079.23461914 C-352.02654996 1070.49509722 -348.5222849 1061.77866783 -344.79248047 1053.14233398 C-338.66859599 1038.95443851 -333.92689514 1024.32425513 -329.16134644 1009.63789368 C-326.49073735 1001.40866967 -323.74567463 993.20442353 -321 985 C-326.62390802 994.64714904 -326.62390802 994.64714904 -331.75 1004.5625 C-334.5517832 1010.30423652 -337.73341966 1015.78989655 -340.9375 1021.3125 C-348.45988793 1034.37077007 -354.36594234 1047.71882644 -359.89819336 1061.72290039 C-362.95590961 1069.45138736 -366.1354193 1077.12234158 -369.37796021 1084.77468872 C-380.52283329 1111.10821683 -391.21737746 1137.55594864 -399.94921875 1164.796875 C-401.72555092 1170.30443562 -403.7587792 1175.66584912 -406 1181 C-407.65 1180.67 -409.3 1180.34 -411 1180 C-410.62431352 1172.30159316 -408.8228265 1165.67280585 -406.25 1158.4375 C-405.51190921 1156.29900864 -404.77623739 1154.15968087 -404.04296875 1152.01953125 C-403.51002197 1150.46806396 -403.51002197 1150.46806396 -402.96630859 1148.88525391 C-401.71890369 1145.16068819 -400.62218321 1141.40633608 -399.5625 1137.625 C-394.68786461 1120.51083701 -388.5050596 1103.72198091 -381.88574219 1087.21142578 C-380.9402138 1084.85073225 -380.00481392 1082.48617272 -379.0703125 1080.12109375 C-373.70026789 1066.57518903 -373.70026789 1066.57518903 -370.890625 1060.109375 C-366.45298337 1049.89161192 -362.81359518 1039.77914321 -360 1029 C-359.7927832 1028.21512207 -359.58556641 1027.43024414 -359.37207031 1026.62158203 C-357.22659091 1018.44052175 -355.21696026 1010.25264041 -353.58520508 1001.95288086 C-348.0541282 973.97472806 -337.12210474 944.54069368 -322.671875 919.92578125 C-320.83462035 917.27221425 -320.83462035 917.27221425 -321 915 C-321.55429687 915.91523437 -322.10859375 916.83046875 -322.6796875 917.7734375 C-323.41130998 918.97404875 -324.14308898 920.17456463 -324.875 921.375 C-325.23980469 921.97828125 -325.60460937 922.5815625 -325.98046875 923.203125 C-327.50946322 925.70511595 -328.91871354 927.91871354 -331 930 C-334.0625 930.1875 -334.0625 930.1875 -337 930 C-338 929 -338 929 -338.25 926.2109375 C-337.96615109 922.56525306 -337.26288383 921.42329831 -335 918.625 C-331.6760962 914.15680146 -329.01812693 909.57500129 -326.5 904.625 C-326.13777344 903.93486816 -325.77554688 903.24473633 -325.40234375 902.53369141 C-323.48395812 898.87232553 -323.48395812 898.87232553 -323.28637695 894.85351562 C-323.85554964 892.80512745 -323.85554964 892.80512745 -326.01171875 891.8046875 C-339.48004179 887.12518256 -353.0454565 886.57922515 -367.16430664 886.51953125 C-369.90312245 886.50024212 -372.6388446 886.43804126 -375.37695312 886.375 C-385.97967188 886.24554561 -395.3479642 887.47782076 -405.53683472 890.39193726 C-414.15825062 892.85419347 -422.84650341 894.73645486 -431.62890625 896.5078125 C-433.10104162 896.80684026 -434.57316376 897.10593314 -436.04527283 897.40509033 C-440.54976353 898.31798691 -445.05602836 899.22194208 -449.5625 900.125 C-454.84918412 901.18528989 -460.13490969 902.25007372 -465.41892815 903.32357407 C-467.49042348 903.74244813 -469.56317796 904.15456728 -471.63612366 904.56619263 C-479.16443888 906.09175119 -486.4718008 907.9171708 -493.79649353 910.23898315 C-497.29537351 911.07016818 -500.41647331 911.13004798 -504 911 C-502.71199923 936.77149832 -500.35858393 960.99478415 -492.85107422 985.79541016 C-492.47611816 987.04499512 -492.10116211 988.29458008 -491.71484375 989.58203125 C-491.36413818 990.71487549 -491.01343262 991.84771973 -490.65209961 993.01489258 C-490.02428412 995.88883493 -489.97254448 997.29440845 -491 1000 C-491.99 1000 -492.98 1000 -494 1000 C-504.00888453 970.92032966 -504.00888453 970.92032966 -506.6875 959.4375 C-508.30705695 952.50455874 -510.24954509 945.75619016 -512.5 939 C-512.77287842 938.17556396 -513.04575684 937.35112793 -513.3269043 936.50170898 C-515.58083151 929.87262838 -518.25131656 923.43756042 -521 917 C-516.54318955 941.57527159 -510.94719705 965.46112501 -502.96289062 989.14306641 C-502.3573945 990.93959675 -501.75872101 992.73845564 -501.16992188 994.54052734 C-495.45438685 1011.97720656 -486.92871759 1028.39874856 -477.13500977 1043.89038086 C-475.60591421 1046.73247909 -475.36924824 1048.84624122 -476 1052 C-478 1054 -478 1054 -481.23046875 1054.3046875 C-487.20390163 1052.23719882 -488.62580418 1047.58746483 -491.3125 1042.125 C-491.87300049 1041.03888428 -492.43350098 1039.95276855 -493.01098633 1038.83374023 C-494.15356764 1036.61605608 -495.28569379 1034.39295364 -496.40722656 1032.16455078 C-498.61845241 1027.77124767 -500.89865152 1023.41571021 -503.1875 1019.0625 C-503.78739746 1017.91031982 -503.78739746 1017.91031982 -504.39941406 1016.73486328 C-507.11859848 1011.54720723 -510.03825273 1006.51458874 -513.0625 1001.5 C-521.89120341 986.74704378 -528.35560573 971.2072157 -534 955 C-533.73445313 956.08796875 -533.46890625 957.1759375 -533.1953125 958.296875 C-530.49678916 969.4608038 -527.91550524 980.40319385 -527.5625 991.9375 C-527.52253906 993.16339844 -527.48257812 994.38929688 -527.44140625 995.65234375 C-528.15561657 999.93261121 -529.61752496 1001.36864061 -533 1004 C-537.00515884 1004.64368624 -539.05309648 1004.61042522 -542.484375 1002.3984375 C-545.41834148 999.60114648 -547.05111364 996.67780208 -548.75 993.0625 C-549.08290039 992.37446289 -549.41580078 991.68642578 -549.75878906 990.97753906 C-552.55093767 985.12670682 -555.17065566 979.19717902 -557.75 973.25 C-558.11448242 972.41218994 -558.47896484 971.57437988 -558.85449219 970.71118164 C-560.76131513 966.2306711 -562.45079172 961.74071316 -563.95703125 957.109375 C-565.97135254 950.93080325 -568.39609762 944.97793883 -570.9375 939 C-573.46484375 933 -573.46484375 933 -574.71435547 930.03125 C-575.60876441 927.92244228 -576.51492953 925.81859801 -577.43017578 923.71875 C-577.88763184 922.6565625 -578.34508789 921.594375 -578.81640625 920.5 C-579.2347876 919.5409375 -579.65316895 918.581875 -580.08422852 917.59375 C-581 915 -581 915 -581 911 C-595.54279792 911.29085596 -609.68269084 914.67463086 -623.87426758 917.59057617 C-624.75236084 917.76951416 -625.6304541 917.94845215 -626.53515625 918.1328125 C-627.29965088 918.29023926 -628.06414551 918.44766602 -628.85180664 918.60986328 C-630.96410532 918.99348111 -633.05155876 919.22972263 -635.1875 919.4375 C-638.5440905 919.93273466 -640.86039524 920.80536444 -643.91430664 922.15991211 C-657.44345839 927.60926376 -672.45522888 930.37703258 -686.921875 931.44921875 C-688.55515747 931.57151855 -688.55515747 931.57151855 -690.22143555 931.69628906 C-692.38610336 931.85256906 -694.55165696 931.99719381 -696.71801758 932.12792969 C-707.27772923 932.85016038 -716.93536849 935.58514576 -726.97680664 938.80371094 C-763.80094078 950.60342573 -801.35227253 956.65598702 -840 956 C-840.66 954.68 -841.32 953.36 -842 952 C-838.14663235 949.37223298 -835.01932632 948.4355103 -830.41796875 947.7890625 C-829.77938934 947.69595291 -829.14080994 947.60284332 -828.48287964 947.50691223 C-827.10517846 947.30734663 -825.72674123 947.11280988 -824.34768677 946.92282104 C-822.15330459 946.62028554 -819.96123151 946.30431212 -817.76928711 945.98461914 C-814.71169349 945.53937222 -811.6535018 945.09867524 -808.59472656 944.66162109 C-782.99476661 940.9904871 -758.29889364 936.60469029 -733.59326172 928.81542969 C-731.41031558 928.12902034 -729.22464467 927.45420905 -727.03515625 926.7890625 C-704.21806475 919.80272178 -681.50970327 912.25317698 -659.453125 903.125 C-648.96325272 898.82833 -638.47865486 895.89272517 -627.39526367 893.51953125 C-625.79821723 893.17313284 -624.20447928 892.8111137 -622.61450195 892.43359375 C-618.13129015 891.37572011 -613.93645291 890.77287549 -609.3125 890.625 C-603.76815173 890.28331342 -601.3355308 889.27808427 -597 886 C-593.83984375 885.87890625 -593.83984375 885.87890625 -591 886 C-591.32613281 884.97003906 -591.65226563 883.94007813 -591.98828125 882.87890625 C-595.14596043 872.67447671 -597.43489727 862.56444343 -599 852 C-599.18691406 850.81792969 -599.37382813 849.63585938 -599.56640625 848.41796875 C-600.32500924 842.10164101 -600.1942928 835.7270267 -600.1875 829.375 C-600.18858765 828.34101074 -600.18858765 828.34101074 -600.18969727 827.28613281 C-600.18795426 812.13591863 -599.23396776 797.09641411 -598 782 C-596.35 782 -594.7 782 -593 782 C-591.27166923 790.08009866 -590.60697098 797.93803203 -590.375 806.1875 C-590.31699219 807.90163086 -590.31699219 807.90163086 -590.2578125 809.65039062 C-590.16465589 812.43344445 -590.07884151 815.21651022 -590 818 C-589.88724731 816.34907349 -589.88724731 816.34907349 -589.7722168 814.66479492 C-587.10649247 775.89516348 -582.20375637 738.15271203 -575.63226318 699.85699463 C-573.58019022 687.89213799 -571.85047064 675.96142779 -570.56079102 663.89233398 C-568.11115448 640.98499532 -563.98679551 620.91648141 -554 600 C-553.47962158 598.86957275 -552.95924316 597.73914551 -552.4230957 596.57446289 C-547.16007723 585.39625942 -540.56254712 575.1959396 -533.72045898 564.92797852 C-531.82232039 562.07724881 -529.94050305 559.2162598 -528.06054688 556.35351562 C-521.31741571 546.13988363 -514.30070929 536.25322041 -506.7800293 526.59887695 C-503.49591808 522.37809177 -500.45765 518.01682333 -497.5 513.5625 C-488.13720131 499.69264373 -478.33345757 486.16306987 -468 473 C-467.34902344 472.16597656 -466.69804688 471.33195312 -466.02734375 470.47265625 C-464.04394396 467.95980683 -462.02818506 465.47683294 -460 463 C-459.22269531 462.03578125 -458.44539063 461.0715625 -457.64453125 460.078125 C-451.02099702 452.01823606 -443.7902943 444.57610456 -436.4375 437.1875 C-435.95489716 436.69972076 -435.47229431 436.21194153 -434.97506714 435.7093811 C-428.3325472 429.01076332 -421.41278916 422.83935701 -414 417 C-413.31687744 416.452229 -412.63375488 415.90445801 -411.92993164 415.34008789 C-395.0000687 401.82391174 -376.84021396 389.80954779 -357.98486328 379.15625 C-356.54959043 378.32015502 -355.13331109 377.45116538 -353.72998047 376.5625 C-347.36841601 372.56416477 -340.92132439 369.82011226 -333.875 367.25 C-325.17857049 364.0026656 -316.59299769 360.59730114 -308.0625 356.9375 C-288.17517301 348.51445794 -267.56552136 342.42372095 -246.75341797 336.75683594 C-240.13958987 334.93888354 -233.56648295 332.98120929 -227 331 C-226.35869141 330.80728516 -225.71738281 330.61457031 -225.05664062 330.41601562 C-218.55780143 328.45397892 -212.10513025 326.42159369 -205.7265625 324.09375 C-204.82784424 323.76810059 -203.92912598 323.44245117 -203.00317383 323.10693359 C-201.24367185 322.46482154 -199.48806107 321.81191797 -197.73706055 321.14697266 C-190.3116088 318.43693204 -190.3116088 318.43693204 -186 320 C-186.28834534 321.8865509 -186.28834534 321.8865509 -187 324 C-189.64268706 325.4165077 -192.12652581 326.54815316 -194.90234375 327.63671875 C-195.69524307 327.96162796 -196.4881424 328.28653717 -197.30506897 328.62129211 C-199.84360855 329.65783552 -202.39011525 330.67291455 -204.9375 331.6875 C-206.65096681 332.38204376 -208.36386562 333.07799057 -210.07617188 333.77539062 C-213.2086765 335.05013323 -216.34464731 336.31555186 -219.48413086 337.57299805 C-221.34540036 338.32844005 -223.20333269 339.10166635 -225 340 C-224.19312744 339.75765625 -223.38625488 339.5153125 -222.55493164 339.265625 C-212.18474457 336.21923151 -201.71766744 333.82204609 -191.1652832 331.5 C-178.52012936 328.70844292 -166.33423373 325.52268039 -154.41015625 320.37109375 C-147.4051914 317.55466458 -140.18100661 315.3218588 -133 313 C-133.92087402 313.18429565 -133.92087402 313.18429565 -134.86035156 313.37231445 C-136.50562893 313.70118752 -138.15118214 314.02868117 -139.796875 314.35546875 C-142.14261067 314.82747654 -144.48606503 315.31086054 -146.828125 315.80078125 C-147.48675537 315.93701904 -148.14538574 316.07325684 -148.82397461 316.21362305 C-150.74394007 316.61081664 -152.66300421 317.01235943 -154.58203125 317.4140625 C-161.97727273 318.68181818 -161.97727273 318.68181818 -164.875 316.75 C-166 315 -166 315 -165.8125 312.9375 C-165 311 -165 311 -163 309 C-162.01 309 -161.02 309 -160 309 C-160 308.34 -160 307.68 -160 307 C-147.69572439 303.64895083 -135.34509982 301.39135297 -122.75 299.4375 C-121.79165253 299.28658905 -120.83330505 299.1356781 -119.84591675 298.98019409 C-80.77363701 292.83828336 -80.77363701 292.83828336 -67 293 C-66.34 290.03 -65.68 287.06 -65 284 C-65.67579102 284.02094727 -66.35158203 284.04189453 -67.04785156 284.06347656 C-70.11508254 284.14671643 -73.18207582 284.19868466 -76.25 284.25 C-77.31347656 284.28351563 -78.37695312 284.31703125 -79.47265625 284.3515625 C-80.49746094 284.36445312 -81.52226563 284.37734375 -82.578125 284.390625 C-83.52075195 284.41157227 -84.46337891 284.43251953 -85.43457031 284.45410156 C-88.7817642 283.86162149 -89.97387836 282.6826572 -92 280 C-91.75 276.75 -91.75 276.75 -91 274 C-86.82237097 272.42589988 -83.40275519 271.75873448 -78.9453125 271.8046875 C-77.83671875 271.81113281 -76.728125 271.81757812 -75.5859375 271.82421875 C-74.44382812 271.84097656 -73.30171875 271.85773438 -72.125 271.875 C-70.9596875 271.88402344 -69.794375 271.89304687 -68.59375 271.90234375 C-65.72895423 271.92582568 -62.86458465 271.95866859 -60 272 C-59.82404297 271.3716626 -59.64808594 270.7433252 -59.46679688 270.09594727 C-58.05830053 265.2153971 -56.4813544 260.57282537 -54.39990234 255.94116211 C-51.18699698 248.78752286 -49.20879647 242.07083737 -48.0625 234.32617188 C-46.64800196 225.01980979 -43.68172621 216.10228537 -40.1875 207.375 C-38.98511659 203.95769979 -38.48774562 201.58578063 -39 198 C-39.99 197.34 -40.98 196.68 -42 196 C-41.51745459 186.36839357 -38.81209043 177.5740654 -36.125 168.375 C-31.41309843 152.21267097 -28.10703202 136.36206811 -26.0625 119.625 C-25.98073517 118.96867584 -25.89897034 118.31235168 -25.81472778 117.63613892 C-24.05309895 103.44961689 -22.72328591 89.22151198 -21.48266602 74.98095703 C-20.72622156 66.46393011 -19.80568302 58.003472 -18.50390625 49.55078125 C-18.38514633 48.7643071 -18.26638641 47.97783295 -18.14402771 47.16752625 C-17.49960202 43.1772465 -16.60106101 39.73483029 -15 36 C-14.71878758 33.73703593 -14.51295111 31.46369338 -14.375 29.1875 C-14.30023437 28.02605469 -14.22546875 26.86460937 -14.1484375 25.66796875 C-14.09945312 24.78753906 -14.05046875 23.90710938 -14 23 C-13.01 23 -12.02 23 -11 23 C-11.02094727 22.44538086 -11.04189453 21.89076172 -11.06347656 21.31933594 C-11.14683548 18.79640977 -11.19871868 16.27377351 -11.25 13.75 C-11.28351562 12.87730469 -11.31703125 12.00460937 -11.3515625 11.10546875 C-11.4502172 4.64358597 -11.4502172 4.64358597 -9.19921875 1.42578125 C-5.92239282 -0.69862633 -3.81938282 -0.60306045 0 0 Z " fill="#CF1A1A" transform="translate(1054,264)"/>
<path d="M0 0 C0 0.66 0 1.32 0 2 C-8.32333358 3.30289264 -16.52735338 4.27727204 -24.94140625 4.75390625 C-27.70508541 4.97627124 -30.29850175 5.39128252 -33 6 C-33 6.99 -33 7.98 -33 9 C-23.1 9 -13.2 9 -3 9 C-6.625 20.6875 -6.625 20.6875 -7.83496094 24.58178711 C-9.47897903 29.91074089 -11.09465606 35.23568321 -12.515625 40.62890625 C-15.42004824 51.64060308 -19.29152008 61.65584459 -24.1640625 71.9453125 C-27.42303219 78.82893727 -30.42948869 85.81701691 -33.4375 92.8125 C-34.54855378 95.39102466 -35.66074208 97.96905836 -36.7734375 100.546875 C-37.18272491 101.49549911 -37.18272491 101.49549911 -37.60028076 102.46328735 C-39.7761602 107.49922624 -41.99197149 112.5167411 -44.21777344 117.53076172 C-52.57663053 136.37612979 -60.75950931 155.32698685 -67.64135742 174.76806641 C-70.88468925 183.85593944 -74.40589524 192.83239262 -77.92446899 201.81628418 C-78.99629919 204.55305052 -80.06612509 207.290593 -81.13549805 210.02832031 C-83.92696695 217.17102575 -86.71970092 224.31267726 -89.56640625 231.43359375 C-94.32701422 243.44550298 -97.87727553 255.65387123 -101.22705078 268.12792969 C-102.32821978 272.21957596 -103.4601462 276.30106105 -104.625 280.375 C-104.96789062 281.59960938 -105.31078125 282.82421875 -105.6640625 284.0859375 C-106.97158155 288.24915237 -108.8549885 292.12166423 -110.69287109 296.07226562 C-112.42351509 299.94859785 -113.87293149 303.90447354 -115.33374023 307.88867188 C-119.56462425 319.40248645 -124.47410206 330.3107155 -130.09155273 341.20898438 C-135.6039762 351.97781875 -140.25262171 363.05500849 -144.84814453 374.23876953 C-146.49653699 378.19029956 -148.23401246 382.09982911 -150 386 C-151.32 386 -152.64 386 -154 386 C-153.57499911 378.95899626 -152.26723581 372.77054908 -149.9375 366.125 C-149.63021973 365.226604 -149.32293945 364.32820801 -149.00634766 363.40258789 C-144.62714388 350.79008469 -139.49002874 338.47141249 -134.30859375 326.171875 C-133.31881723 323.7727749 -132.35511555 321.36981526 -131.41015625 318.953125 C-126.50849501 306.45455664 -121.19021802 294.16233667 -115.74829102 281.89160156 C-115.45006943 281.21670685 -115.15184784 280.54181213 -114.84458923 279.84646606 C-114.02706857 277.99706753 -113.20626867 276.14911957 -112.38525391 274.30126953 C-111.09859176 271.23495907 -110.00367064 268.1687574 -109 265 C-109.99 265 -110.98 265 -112 265 C-120.15331814 281.88081362 -127.46751247 299.17387336 -134.46484375 316.5625 C-143.54276309 339.09291866 -153.67725483 360.08397021 -166.76293945 380.62402344 C-171.90574751 388.72118207 -176.3284835 396.87963612 -180.16796875 405.67578125 C-186.93839832 420.53375467 -199.33429654 429.20759692 -214.18139648 434.88989258 C-220.59868121 437.2523786 -227.04825216 439.35938014 -233.63671875 441.19140625 C-236.62492557 442.21381751 -239.35708541 443.60019399 -242.1875 445 C-258.45220847 452.54142192 -275.49191713 451.34384894 -293 451 C-293 452.65 -293 454.3 -293 456 C-289.03459569 455.88048835 -285.06937174 455.75617829 -281.10424805 455.62768555 C-279.10277877 455.56378595 -277.10119407 455.50353516 -275.09960938 455.44335938 C-269.05887696 455.24555202 -263.10486556 454.9659169 -257.1081543 454.21606445 C-253.03815352 453.79893062 -248.96269905 453.81561088 -244.875 453.8125 C-244.02035156 453.80025391 -243.16570312 453.78800781 -242.28515625 453.77539062 C-237.12493182 453.76350071 -232.88614782 454.32493848 -228 456 C-242.12279277 465.41519518 -264.41988588 464.5020135 -280.72265625 465.453125 C-306.18317196 466.9441686 -328.77395259 471.48625525 -352.57421875 480.75219727 C-368.07949545 486.78692144 -383.80036931 492.29940225 -399.5625 497.625 C-400.28783936 497.87266113 -401.01317871 498.12032227 -401.76049805 498.37548828 C-404.63941165 499.33383331 -406.94263596 500 -410 500 C-411.4296875 498.171875 -411.4296875 498.171875 -412.875 495.75 C-414.68585827 492.86786666 -415.92378777 491.05988104 -418.625 488.9375 C-421.48178819 486.60696227 -422.53095029 484.41728316 -424.0390625 481.10546875 C-424.90476174 479.20867245 -425.9137323 477.37886205 -426.9375 475.5625 C-437.4262867 454.12525865 -434.42704645 432.65329089 -430 410 C-429.67 410 -429.34 410 -429 410 C-428.02982808 416.30611749 -427.9920151 421.99163591 -428.9375 428.3125 C-430.66649537 439.98913998 -430.81639938 450.70899458 -427 462 C-425.93354885 463.29633621 -425.93354885 463.29633621 -423.4375 463.0625 C-422.2309375 463.0315625 -422.2309375 463.0315625 -421 463 C-421.165 462.01 -421.33 461.02 -421.5 460 C-422.0158634 455.77590113 -422.14674001 451.56376731 -422.1875 447.3125 C-422.20876953 445.41951172 -422.20876953 445.41951172 -422.23046875 443.48828125 C-421.92321131 432.78651689 -419.28861803 422.14504524 -417.1875 411.6875 C-415.24617731 401.97716498 -413.55017411 392.27425923 -412.15234375 382.47094727 C-408.30387752 355.5417057 -398.15586614 332.63939219 -386.94378662 308.07183838 C-385.56499676 305.04506337 -384.19899513 302.01260289 -382.83203125 298.98046875 C-377.49153877 287.17965873 -371.8973388 275.53257366 -366 264 C-364.78611967 267.641641 -365.28764313 268.2666318 -366.84375 271.65625 C-367.26293701 272.58783936 -367.68212402 273.51942871 -368.11401367 274.47924805 C-368.57138916 275.47609619 -369.02876465 276.47294434 -369.5 277.5 C-372.91879501 285.1618988 -376.23832128 292.83128442 -379.1875 300.6875 C-379.64189453 301.86119141 -379.64189453 301.86119141 -380.10546875 303.05859375 C-381.49443763 306.8248363 -382.23162949 309.16738093 -381 313 C-380.01 313 -379.02 313 -378 313 C-377.01 310.36 -376.02 307.72 -375 305 C-374.34 305 -373.68 305 -373 305 C-372.76023437 303.74445313 -372.52046875 302.48890625 -372.2734375 301.1953125 C-370.99811938 295.49087912 -368.89495987 290.2485932 -366.625 284.875 C-366.18655762 283.83384033 -365.74811523 282.79268066 -365.29638672 281.7199707 C-343.17797187 230.17637278 -306.26993737 178.09996702 -263 142 C-262.13503906 141.24589844 -261.27007813 140.49179687 -260.37890625 139.71484375 C-249.26608321 130.16637561 -237.06642758 122.52699063 -224.48046875 115.08203125 C-221.46119424 113.29013075 -218.50622017 111.41407814 -215.5625 109.5 C-213.7124287 108.32684983 -211.85796922 107.16060137 -210 106 C-208.35644531 104.96939453 -208.35644531 104.96939453 -206.6796875 103.91796875 C-193.55827468 95.98364188 -179.18290743 90.99912902 -164.79541016 85.85400391 C-163.2976001 85.31718994 -163.2976001 85.31718994 -161.76953125 84.76953125 C-160.42725464 84.29350464 -160.42725464 84.29350464 -159.05786133 83.80786133 C-157.04113843 83.17440872 -157.04113843 83.17440872 -156 82 C-155.92851801 80.64756083 -155.91600546 79.29165633 -155.9375 77.9375 C-155.9684375 75.9884375 -155.9684375 75.9884375 -156 74 C-163.59863929 72.20198666 -168.45944703 74.304667 -175.4375 77.4375 C-176.48631348 77.89036377 -177.53512695 78.34322754 -178.61572266 78.80981445 C-185.82241291 81.94700601 -192.96815078 85.23210023 -199.99780273 88.74975586 C-201.63868385 89.55619926 -203.31650999 90.28676568 -205 91 C-205.66 90.67 -206.32 90.34 -207 90 C-202.01681497 86.97142634 -197.01683328 83.97251643 -192 81 C-191.34306152 80.61038086 -190.68612305 80.22076172 -190.00927734 79.81933594 C-176.47714043 71.84961412 -162.38757176 65.39710255 -147.6015625 60.10546875 C-145.04338091 59.01843363 -143.13401805 57.76486327 -141 56 C-141.33 54.02 -141.66 52.04 -142 50 C-144.31 49.34 -146.62 48.68 -149 48 C-145.62605957 44.62605957 -141.03268688 43.49517109 -136.625 41.8125 C-135.51753418 41.38831787 -134.41006836 40.96413574 -133.26904297 40.52709961 C-121.63635541 36.13876211 -109.88711394 32.08844945 -98.125 28.0625 C-96.69211639 27.56987167 -96.69211639 27.56987167 -95.23028564 27.06729126 C-76.38847979 20.60202913 -76.38847979 20.60202913 -66.97998047 18.50561523 C-65.01245736 18.18251266 -65.01245736 18.18251266 -64 17 C-63.95936168 15.33382885 -63.957279 13.66611905 -64 12 C-74.46418649 9.09766903 -88.88776192 15.15434506 -99 18 C-100.44802002 18.40412109 -100.44802002 18.40412109 -101.92529297 18.81640625 C-110.29916676 21.15789797 -118.65220843 23.56734477 -127 26 C-128.22219238 26.35223633 -129.44438477 26.70447266 -130.70361328 27.06738281 C-178.72109051 40.98715633 -220.46122132 65.91035798 -258.171875 98.5703125 C-260.8611935 100.88074911 -263.60432497 103.10082081 -266.375 105.3125 C-271.64826087 109.597507 -276.59381939 114.19304013 -281.52294922 118.86450195 C-284.52876561 121.71102393 -287.55886041 124.49485274 -290.70703125 127.18359375 C-296.41695249 132.14284681 -301.6775342 137.57116317 -307 142.9375 C-308.07137887 144.01390654 -309.14299182 145.09008014 -310.21484375 146.16601562 C-312.81259638 148.77466745 -315.40717962 151.38644471 -318 154 C-318 149.52828567 -315.09686172 147.30259053 -312.25 144.125 C-311.73050781 143.53203125 -311.21101562 142.9390625 -310.67578125 142.328125 C-308.80143736 140.20239852 -306.90339063 138.09976875 -305 136 C-304.17419434 135.08589355 -303.34838867 134.17178711 -302.49755859 133.22998047 C-294.40114181 124.32978754 -285.97915977 115.76011746 -277.48291016 107.24267578 C-275.12848534 104.87849977 -272.78498358 102.50382923 -270.44140625 100.12890625 C-261.74935864 91.37617778 -252.9282542 83.32143084 -243 76 C-241.6025694 74.93398059 -240.20537666 73.86764918 -238.80859375 72.80078125 C-232.17243369 67.86746346 -225.44456408 63.25732738 -218.33984375 59.01171875 C-216.0102463 57.60851093 -213.72070546 56.18657635 -211.44140625 54.70703125 C-178.39213345 33.32474199 -139.34207884 16.96646847 -101 8 C-100.32888184 7.83628906 -99.65776367 7.67257812 -98.96630859 7.50390625 C-92.30878406 5.89399275 -86.10593408 4.85993831 -79.25 5.0625 C-72.12451414 5.2400822 -65.45981816 4.22440834 -58.4375 3.0625 C-39.06086344 -0.08013756 -19.5863525 -0.06714681 0 0 Z " fill="#000000" transform="translate(962,622)"/>
<path d="M0 0 C0.66 0 1.32 0 2 0 C2.16491943 0.77561279 2.32983887 1.55122559 2.49975586 2.3503418 C6.79498349 22.46561575 11.44999042 42.47173027 16.38134766 62.43994141 C17.83472542 68.32609209 19.28230933 74.21365751 20.72926998 80.10138798 C22.77663257 88.43200013 24.82622791 96.76206195 26.8765831 105.09193802 C27.49966867 107.62365375 28.12248248 110.15543622 28.74526978 112.68722534 C29.73565305 116.71274169 30.72739371 120.73792145 31.72013283 124.76285744 C32.09211228 126.27181414 32.46366743 127.78087552 32.83478355 129.29004478 C33.34768913 131.37545233 33.86212411 133.46047676 34.37695312 135.54541016 C34.66735474 136.7239859 34.95775635 137.90256165 35.25695801 139.11685181 C35.76739428 141.09744435 36.35321626 143.05964879 37 145 C37.09667918 146.86177932 37.13542732 148.72678767 37.1418457 150.59106445 C37.15239738 152.31610954 37.15239738 152.31610954 37.16316223 154.07600403 C37.16732651 155.32580551 37.17149078 156.57560699 37.17578125 157.86328125 C37.19305584 159.84784182 37.21035581 161.83240247 37.22898388 163.8169508 C37.2741855 168.69230561 37.31203398 173.56756355 37.32592773 178.44311523 C37.40303093 201.94680317 38.36604745 223.82705803 49.625 244.9296875 C50.34610962 246.28694946 50.34610962 246.28694946 51.08178711 247.67163086 C52.0371414 249.45616651 53.00579639 251.23367516 53.99047852 253.00219727 C60.08701059 264.2272346 62.58823292 275.74432816 64.01074219 288.32299805 C64.2526719 290.46111364 64.51160772 292.59665983 64.7734375 294.73242188 C65.46434461 300.50748958 66.10470467 306.17273954 66 312 C63.80349384 309.80349384 63.47365559 308.74166644 62.66796875 305.80859375 C62.42965332 304.95507324 62.19133789 304.10155273 61.94580078 303.22216797 C61.57044189 301.84375732 61.57044189 301.84375732 61.1875 300.4375 C60.64732308 298.5116661 60.10695615 296.58588549 59.56640625 294.66015625 C58.82548584 291.99239509 58.08791045 289.32395508 57.36279297 286.65185547 C54.40138858 275.747268 50.44733496 265.56355264 45.94140625 255.20654297 C43.80516734 250.19945603 41.90413265 245.09904752 40 240 C39.34 240 38.68 240 38 240 C39.24732329 246.1343323 40.90054613 252.00221385 42.875 257.9375 C43.93909554 261.28492639 44.97644983 264.63996882 46 268 C46.22042969 268.71800781 46.44085937 269.43601562 46.66796875 270.17578125 C52.56992701 290.13718147 52.84840258 315.19227522 46 335 C34.7254849 354.49113894 16.83627382 360.8675682 -3.70703125 366.41796875 C-15.98811145 369.59696521 -28.21318526 370.23764879 -40.84619141 370.65966797 C-46.61479427 370.85339345 -52.27114423 371.28903431 -58 372 C-58 372.99 -58 373.98 -58 375 C-33.25 375 -8.5 375 17 375 C17 375.66 17 376.32 17 377 C10.80269914 378.57589284 4.88032851 379.39503633 -1.50390625 379.62109375 C-2.46567276 379.65883408 -3.42743927 379.6965744 -4.41835022 379.73545837 C-20.66897584 380.28169984 -36.94339218 380.10926023 -53.20068359 380.06866455 C-57.81412286 380.05827299 -62.42756793 380.05383367 -67.04101562 380.04882812 C-76.02735857 380.03823361 -85.01367637 380.02125954 -94 380 C-91.48685843 377.48685843 -90.03513062 377.47923115 -86.5546875 376.9296875 C-85.47832031 376.75566406 -84.40195312 376.58164062 -83.29296875 376.40234375 C-82.16503906 376.22832031 -81.03710938 376.05429687 -79.875 375.875 C-78.17150391 375.60236328 -78.17150391 375.60236328 -76.43359375 375.32421875 C-73.62346575 374.87554285 -70.81235351 374.43446972 -68 374 C-68 373.01 -68 372.02 -68 371 C-68.97759277 371.01571045 -69.95518555 371.0314209 -70.96240234 371.04760742 C-74.63386603 371.1024339 -78.30529452 371.13653905 -81.97705078 371.16479492 C-83.55784211 371.17976271 -85.13859278 371.20014437 -86.71923828 371.22631836 C-95.70053961 371.37117806 -103.49468376 371.24542172 -112 368 C-113.32877209 367.64892503 -114.66105881 367.31004094 -116 367 C-115.4433211 359.39520016 -113.12199248 352.57018483 -110.6875 345.375 C-110.46991028 344.725383 -110.25232056 344.07576599 -110.02813721 343.40646362 C-106.6420611 333.31920648 -102.88274664 323.41748699 -98.875 313.5625 C-91.49169197 295.36557051 -85.23483012 277.36790344 -80.5 258.3125 C-77.51139539 246.28852018 -74.12463817 234.88025447 -69.10839844 223.51953125 C-61.29569534 205.76025901 -54.76248295 187.74174316 -48.73025513 169.32443237 C-48.48153656 168.56510406 -48.23281799 167.80577576 -47.9765625 167.0234375 C-47.72856903 166.26596222 -47.48057556 165.50848694 -47.22506714 164.72805786 C-39.88667822 142.38574186 -31.89885545 120.16968372 -22.93969727 98.42675781 C-20.50196776 92.50100353 -18.54794767 86.54147381 -16.8125 80.375 C-16.55275391 79.48554687 -16.29300781 78.59609375 -16.02539062 77.6796875 C-14.5354793 72.44382341 -13.52426038 67.41946269 -13 62 C-14.32 62.33 -15.64 62.66 -17 63 C-17.15968262 63.60545654 -17.31936523 64.21091309 -17.48388672 64.8347168 C-23.43265337 87.18746841 -30.59720488 109.09045955 -39.3737793 130.4987793 C-41.47934278 135.63696245 -43.37440167 140.79270743 -45.015625 146.1015625 C-45.8724378 148.62440018 -46.8205361 151.06073341 -47.82421875 153.52734375 C-49.81674507 158.45704206 -51.59498151 163.44512671 -53.34838867 168.46411133 C-60.11305192 187.81678858 -67.46434041 206.95742944 -76.34375 225.44921875 C-78.24495867 229.52515903 -79.96965126 233.65691734 -81.6875 237.8125 C-89.48740632 256.55463773 -98.22729753 274.78345767 -107.77441406 292.69238281 C-115.40635886 307.06233146 -122.04321017 321.85721322 -128 337 C-130.59109092 330.42918876 -125.63283927 322.08107327 -123 316 C-117.99816076 305.30733899 -112.55971432 294.82223046 -107.1875 284.3125 C-95.87164389 262.15745255 -85.14586679 240.15687714 -77.25 216.5 C-76.54762813 214.42682803 -75.84449908 212.35391243 -75.140625 210.28125 C-74.79265869 209.25362549 -74.44469238 208.22600098 -74.08618164 207.16723633 C-72.33910694 202.07287804 -70.51216662 197.00746053 -68.69390869 191.93817139 C-59.76889182 167.00951357 -51.27771054 141.95941405 -43.15625 116.7578125 C-41.05695426 110.24400508 -38.93744808 103.73740042 -36.78125 97.2421875 C-36.54523071 96.52813751 -36.30921143 95.81408752 -36.06604004 95.07839966 C-34.69558781 90.96722506 -33.22722349 86.90559973 -31.69091797 82.85366821 C-30.74072536 80.30439043 -29.89016888 77.72702056 -29.046875 75.140625 C-23.80972897 59.36320164 -17.8746674 44.02678068 -11.35449219 28.73730469 C-10.74121023 27.29766497 -10.12824945 25.85788838 -9.515625 24.41796875 C-9.22065125 23.72474518 -8.92567749 23.03152161 -8.62176514 22.31729126 C-5.51910478 14.96385946 -2.73762112 7.49559652 0 0 Z " fill="#010000" transform="translate(1027,640)"/>
<path d="M0 0 C7.61952878 1.59006973 14.4792627 5.13469867 21.4375 8.5 C35.40707857 15.25280203 49.94173343 18.54029331 65 22 C65.495 23.98 65.495 23.98 66 26 C66.70906494 26.12133301 67.41812988 26.24266602 68.14868164 26.36767578 C73.46194331 27.54597424 78.41051235 29.82338229 83.4375 31.875 C84.62786865 32.35952637 85.8182373 32.84405273 87.04467773 33.34326172 C98.31722073 38.00481143 109.18909419 43.35864375 120 49 C120.66 49.33 121.32 49.66 122 50 C119.29396652 48.41262701 116.58575775 46.82927863 113.875 45.25 C113.03275879 44.75918945 112.19051758 44.26837891 111.32275391 43.76269531 C106.6377692 41.05001968 101.92785849 38.40133215 97.15625 35.84375 C96.19219238 35.32651367 95.22813477 34.80927734 94.23486328 34.27636719 C92.37780496 33.2852174 90.51698621 32.30106971 88.65185547 31.32519531 C81.81865053 27.6769265 75.49886827 23.49886827 70 18 C69.4589372 12.04830918 69.4589372 12.04830918 71 9.0625 C76.21566807 6.29167634 81.66798446 8.0596297 86.98046875 9.6796875 C93.8553227 11.85229168 100.37750175 14.58499103 106.9375 17.5625 C108.6841394 18.34814331 108.6841394 18.34814331 110.46606445 19.1496582 C129.79813269 27.91611255 148.91123693 37.3219926 166.75 48.875 C167.30357178 49.22506104 167.85714355 49.57512207 168.42749023 49.93579102 C179.29355103 57.16458425 188.45752094 67.29237336 197.62915039 76.4987793 C199.32519726 78.20023778 201.02659821 79.89621263 202.72851562 81.59179688 C208.36371793 87.22289892 213.88913526 92.88084098 219 99 C219.50732666 99.60062256 220.01465332 100.20124512 220.53735352 100.82006836 C236.14956826 119.44084813 249.04268141 139.05276468 260.93739319 160.21983337 C271.1789491 178.44483959 282.04456138 195.43583212 295.30859375 211.6328125 C302.764635 220.84932667 302.764635 220.84932667 303.5625 224.75 C303 227 303 227 301.3125 228.8125 C298.50642852 230.25345562 297.10622175 230.62124435 294 230 C291.15221386 226.81819684 289.0356032 223.49943443 287.0390625 219.73828125 C286.4920166 218.71452393 285.9449707 217.6907666 285.38134766 216.63598633 C284.51195557 214.9908606 284.51195557 214.9908606 283.625 213.3125 C282.69437728 211.5673055 281.76374624 209.82211537 280.83261108 208.07719421 C279.8660686 206.26449968 278.90168784 204.45066665 277.9375 202.63671875 C274.26975096 195.74356225 270.55140308 188.87742559 266.83935547 182.00805664 C264.42381978 177.53140538 262.01250768 173.05583515 259.6953125 168.52734375 C255.18800167 159.74220516 249.98956677 151.82394722 244 144 C243.31550781 143.10152344 242.63101562 142.20304688 241.92578125 141.27734375 C228.72437653 124.6058555 209.83899216 100.94633072 189 94 C190.27230469 94.87398437 190.27230469 94.87398437 191.5703125 95.765625 C224.7060845 118.81286556 242.03191633 146.14221043 257.36499023 183.05004883 C260.78492356 191.2608471 264.54586241 199.1018696 268.875 206.875 C287.43550147 240.22954752 297.83164683 273.30756574 303 311 C300.63070372 313.2781695 299.30726036 313.96799371 296 314.3125 C292.48259503 312.77363532 292.32694334 312.23266822 290.9375 308.8125 C290.26476535 306.88417559 289.62108705 304.9455739 289 303 C279.56679736 273.78276536 261.24988688 248.55280277 242 225 C242.58007812 226.23363281 242.58007812 226.23363281 243.171875 227.4921875 C243.69265625 228.60851562 244.2134375 229.72484375 244.75 230.875 C245.26046875 231.96554687 245.7709375 233.05609375 246.296875 234.1796875 C247.58437354 236.99639741 248.73343451 239.84799711 249.85546875 242.734375 C252.50519172 249.43542166 255.76963022 255.83246212 259.02148438 262.2578125 C263.24364779 270.8531383 266.05526883 279.64008621 266.6875 289.25 C266.75324219 290.16265625 266.81898438 291.0753125 266.88671875 292.015625 C266.92410156 292.67046875 266.96148438 293.3253125 267 294 C265.14135742 293.70336914 265.14135742 293.70336914 263 293 C261.26216501 290.49979872 259.77704627 288.09106954 258.3125 285.4375 C257.87752197 284.6753418 257.44254395 283.91318359 256.99438477 283.12792969 C254.85117452 279.36010932 252.75827502 275.56473161 250.6640625 271.76953125 C240.49755859 253.38165101 228.03386654 236.74288848 213 222 C213.85271484 223.30710937 213.85271484 223.30710937 214.72265625 224.640625 C217.17330324 228.41138366 219.58961302 232.20342331 222 236 C222.3727002 236.58088379 222.74540039 237.16176758 223.12939453 237.76025391 C224.14374167 239.35103005 225.13498152 240.95647003 226.125 242.5625 C226.99511719 243.95662109 226.99511719 243.95662109 227.8828125 245.37890625 C229.19106883 248.44827688 229.04368365 249.87444212 228 253 C227 254 227 254 224.17993164 254.359375 C221 254 221 254 218.94311523 252.015625 C218.34184814 251.10296875 217.74058105 250.1903125 217.12109375 249.25 C216.44288574 248.24324219 215.76467773 247.23648438 215.06591797 246.19921875 C214.38416504 245.14347656 213.70241211 244.08773437 213 243 C212.34273926 242.01644531 211.68547852 241.03289062 211.00830078 240.01953125 C208.33884776 236.01898497 205.70821541 231.99380136 203.08789062 227.9609375 C196.62072837 218.13643586 189.26506143 209.25545992 181.3359375 200.58203125 C180.0523994 199.16327091 178.77531336 197.73820128 177.52929688 196.28637695 C172.52072736 190.45604302 167.18161294 184.99803185 161.75 179.5625 C160.87214844 178.67240234 159.99429687 177.78230469 159.08984375 176.86523438 C151.01571326 168.77337153 142.3954377 161.53277597 133.0625 154.9375 C132.1806604 154.31282837 132.1806604 154.31282837 131.28100586 153.67553711 C127.58460622 151.07067835 123.83924771 148.54987416 120.0625 146.0625 C115.2504226 142.88042453 110.54302475 139.57578925 105.875 136.1875 C105.22281494 135.71900635 104.57062988 135.2505127 103.89868164 134.76782227 C101.02613607 132.66504132 98.9933811 130.99007164 97 128 C97.54054054 123.45945946 97.54054054 123.45945946 99 122 C109.16726654 120.9183759 117.73586716 126.72502159 126 132 C102.98566202 105.95362398 102.98566202 105.95362398 77 83 C75.99710938 82.19175781 74.99421875 81.38351562 73.9609375 80.55078125 C61.03977363 70.21345295 47.05638588 62.76339488 32 56 C32 55.01 32 54.02 32 53 C56.67779652 56.403834 81.02319847 74.3886205 101.23291016 87.82525635 C103.12799227 89.08508798 105.02483774 90.34223561 106.921875 91.59912109 C114.61593728 96.69966761 122.29500125 101.8222464 129.96166992 106.96386719 C132.97126375 108.98074244 135.98478189 110.99154806 139 113 C121.79663154 92.57759634 102.06387809 78.2025428 79 65 C78.30648438 64.59297852 77.61296875 64.18595703 76.8984375 63.76660156 C66.51263436 57.69294316 55.72343668 53.45260724 44.35131836 49.53662109 C38.06909451 47.3349434 33.2723739 45.03261673 28 41 C25.39779481 39.91030701 25.39779481 39.91030701 22.75 39.25 C7.0436408 34.3244541 -7.06062945 27.51065954 -17 14 C-18.05943323 10.04478259 -18.42530021 7.95692547 -16.75 4.1875 C-12.2170123 -1.47873462 -6.67158111 -0.61010896 0 0 Z " fill="#CF1A1A" transform="translate(1180,598)"/>
<path d="M0 0 C0.33 0 0.66 0 1 0 C2.75448121 16.64637234 2.89410176 33.47836939 0 50 C-0.13422363 50.77939941 -0.26844727 51.55879883 -0.40673828 52.36181641 C-2.30338552 63.12208642 -4.74840655 73.55234965 -8.28173828 83.89257812 C-9.05722819 86.16791085 -9.80740601 88.45091148 -10.55859375 90.734375 C-19.44399809 117.34609555 -32.75175253 141.91198394 -47 166 C-47.33 165.34 -47.66 164.68 -48 164 C-46.92599534 161.34099701 -45.784443 158.77806303 -44.5625 156.1875 C-31.63800647 127.88442319 -22.57867061 98.12226378 -15 68 C-14.7632959 67.06027344 -14.5265918 66.12054687 -14.28271484 65.15234375 C-12.77772264 59.11872423 -11.3677471 53.0660852 -10 47 C-9.71737305 45.74799805 -9.43474609 44.49599609 -9.14355469 43.20605469 C-8.35006064 39.68057746 -7.56432708 36.15342762 -6.78323364 32.62518311 C-6.47516095 31.23435223 -6.16601924 29.8437576 -5.85568237 28.45343018 C-4.08497874 20.50193199 -2.53389323 12.56790674 -1.41870117 4.49414062 C-1 2 -1 2 0 0 Z " fill="#080101" transform="translate(1490,1111)"/>
<path d="M0 0 C1 2 1 2 0.21484375 4.8515625 C-0.20667969 6.09679687 -0.62820313 7.34203125 -1.0625 8.625 C-9.3774215 34.15970422 -14.76654092 60.85768253 -18.8125 87.375 C-18.9177298 88.05706512 -19.02295959 88.73913025 -19.13137817 89.44186401 C-21.35450763 103.98451499 -22.20288255 118.36425918 -22.1875 133.0625 C-22.1882251 133.77701324 -22.1889502 134.49152649 -22.18969727 135.22769165 C-22.18842948 146.59762802 -21.53978398 157.77682813 -20.1875 169.06787109 C-19.93043295 171.71686672 -19.93216043 174.34153693 -20 177 C-22.31458862 173.52811707 -22.77944431 170.89996869 -23.5625 166.8125 C-23.81128906 165.54019531 -24.06007813 164.26789063 -24.31640625 162.95703125 C-28.42514706 139.79944464 -27.84580485 115.29361958 -24.32409668 92.1338501 C-23.95994923 89.73630603 -23.60357753 87.33765658 -23.24707031 84.93896484 C-20.59570493 67.20386948 -17.88598337 49.45155194 -14.3125 31.875 C-14.04590576 30.53852417 -14.04590576 30.53852417 -13.77392578 29.17504883 C-11.97661386 20.80206564 -9.06259737 13.0987097 -4.3125 5.9375 C-3.71050781 5.01839844 -3.10851562 4.09929688 -2.48828125 3.15234375 C-1 1 -1 1 0 0 Z " fill="#0E0202" transform="translate(510,910)"/>
<path d="M0 0 C0.99 0.495 0.99 0.495 2 1 C-3.59148111 6.10839359 -9.19239617 11.19748648 -14.9140625 16.16015625 C-17.43471621 18.38342947 -19.90172248 20.66166901 -22.375 22.9375 C-26.55092845 26.74681744 -30.83879948 30.32043715 -35.27734375 33.81640625 C-44.62768386 41.31545951 -53.54545815 49.31736643 -62.32641602 57.46972656 C-63.58245615 58.61821081 -64.85066502 59.75340986 -66.12475586 60.88183594 C-72.76052097 66.76927701 -79.09832197 72.91211171 -85.3684082 79.18310547 C-87.05857346 80.87107855 -88.75660834 82.55085724 -90.45507812 84.23046875 C-96.43236941 90.17892838 -102.01007205 96.19464196 -107.19311523 102.85986328 C-109 105 -109 105 -112 107 C-105.88452403 93.2153866 -92.22295238 80.43012897 -82.14453125 69.36328125 C-80.77363184 67.8525451 -79.41546254 66.33009399 -78.07421875 64.79296875 C-67.07937305 52.26097957 -55.27935108 40.10979403 -42 30 C-40.81016263 29.05990259 -39.62144517 28.11838675 -38.43359375 27.17578125 C-26.07681384 17.46079566 -13.0582661 8.7322727 0 0 Z " fill="#0A0101" transform="translate(702,663)"/>
<path d="M0 0 C8.44023625 0.71681432 15.9471451 9.60440404 21.93359375 15.12890625 C24.00795903 17.03996304 26.12087731 18.88385675 28.265625 20.71484375 C32.23727013 24.16601119 35.90884382 27.88389281 39.578125 31.65234375 C41.59006884 33.6174982 43.60146139 35.44268207 45.734375 37.265625 C51.38153696 42.16575872 56.67491343 47.42737394 61.97753906 52.6940918 C63.17952123 53.88442176 64.38598966 55.07023694 65.59667969 56.25170898 C67.36069334 57.97330479 69.11130852 59.70754453 70.859375 61.4453125 C71.40299683 61.97142624 71.94661865 62.49753998 72.50671387 63.03959656 C76.265625 66.82073641 76.265625 66.82073641 76.265625 71.27734375 C74.125 71.6484375 74.125 71.6484375 71.265625 71.27734375 C69.13178089 69.35875584 67.36981 67.5061165 65.515625 65.33984375 C64.28155944 63.96625288 63.04289888 62.59678257 61.80078125 61.23046875 C61.09711426 60.45509766 60.39344727 59.67972656 59.66845703 58.88085938 C46.11250027 44.19271439 32.3866328 29.79863346 15.265625 19.27734375 C13.7690208 18.33805241 12.27293903 17.39792822 10.77734375 16.45703125 C8.64354874 15.11765231 6.50761677 13.78553182 4.35131836 12.48266602 C-1.84696558 8.72270997 -1.84696558 8.72270997 -3.734375 6.27734375 C-3.984375 3.65234375 -3.984375 3.65234375 -3.734375 1.27734375 C-2.734375 0.27734375 -2.734375 0.27734375 0 0 Z " fill="#C81919" transform="translate(1337.734375,623.72265625)"/>
<path d="M0 0 C2.70852997 1.58612853 4.90454377 3.60895054 7.1875 5.75 C7.79013672 6.28882813 8.39277344 6.82765625 9.01367188 7.3828125 C10.69849375 8.89933713 12.35215634 10.44351307 14 12 C14.79148437 12.72703125 15.58296875 13.4540625 16.3984375 14.203125 C18 16 18 16 18.4375 19 C17.93936827 22.41576045 17.6923481 23.81246717 15 26 C10.91219107 26.76213387 8.56158083 26.98982092 5.015625 24.7421875 C2.89898049 22.92187322 0.95928568 20.9884743 -1 19 C-1.82628906 18.26652344 -2.65257812 17.53304687 -3.50390625 16.77734375 C-9.80007357 11.03295322 -9.80007357 11.03295322 -10.75 6.125 C-10 3 -10 3 -8.9375 1.0625 C-5.79580612 -0.66036439 -3.53881768 -0.39360319 0 0 Z " fill="#CD1A1A" transform="translate(1337,785)"/>
<path d="M0 0 C-32.44476942 18.32342502 -92.65874372 14.29118889 -128 8 C-128.75555176 7.86658203 -129.51110352 7.73316406 -130.28955078 7.59570312 C-133.62885277 6.99521133 -136.95763233 6.35872231 -140.28515625 5.6953125 C-146.48848249 4.53422725 -152.7366786 3.76491713 -159 3 C-153.58925798 -0.60716135 -147.31243711 1.10401298 -141.15234375 2.05859375 C-140.41859024 2.1672023 -139.68483673 2.27581085 -138.92884827 2.38771057 C-135.82649496 2.84702675 -132.72592481 3.3178752 -129.62524414 3.78833008 C-112.05775822 6.43999081 -94.75852014 7.26885286 -77 7.3125 C-75.41177933 7.31692612 -75.41177933 7.31692612 -73.79147339 7.32144165 C-56.16704984 7.33258088 -39.35565606 6.14123031 -22 3 C-20.19546705 2.68790713 -18.39078982 2.37664682 -16.5859375 2.06640625 C-13.76725786 1.5776687 -10.96123534 1.06059055 -8.15234375 0.515625 C-5.35795961 0.05855101 -2.82236747 -0.10670576 0 0 Z " fill="#1D0304" transform="translate(1129,1543)"/>
<path d="M0 0 C4.50315859 2.42519505 8.72715625 5.18791077 13 8 C13.94746094 8.515625 14.89492187 9.03125 15.87109375 9.5625 C16.57363281 10.036875 17.27617188 10.51125 18 11 C18.375 14.125 18.375 14.125 18 17 C16.45976778 18.54023222 15.0904428 18.43091167 12.9375 18.625 C4.73163551 18.625 -2.33264919 13.31508452 -9 9 C-9.66 8.34 -10.32 7.68 -11 7 C-10.75 3.4375 -10.75 3.4375 -10 0 C-6.58096024 -1.70951988 -3.51883321 -1.0707153 0 0 Z " fill="#CA1A1A" transform="translate(1210,585)"/>
<path d="M0 0 C0.33 0 0.66 0 1 0 C1.08636719 0.84433594 1.17273437 1.68867187 1.26171875 2.55859375 C2.07061382 9.92770205 3.01840774 17.24396122 4.2109375 24.5625 C6.46935242 38.45674053 8.40799295 52.03364194 8.68554688 66.13964844 C8.91360271 76.59437933 9.92254701 86.93386775 10.98486328 97.33032227 C11.11489746 98.61737061 11.24493164 99.90441895 11.37890625 101.23046875 C11.4982251 102.36895264 11.61754395 103.50743652 11.74047852 104.68041992 C12.01045596 108.13374383 12.04368203 111.53758092 12 115 C11.67 115 11.34 115 11 115 C10.83395264 113.97229492 10.83395264 113.97229492 10.66455078 112.92382812 C10.15487421 109.78197171 9.63997657 106.64099187 9.125 103.5 C8.95097656 102.42234375 8.77695313 101.3446875 8.59765625 100.234375 C8.42363281 99.17734375 8.24960938 98.1203125 8.0703125 97.03125 C7.91320801 96.06767578 7.75610352 95.10410156 7.59423828 94.11132812 C7.01990455 90.87963995 7.01990455 90.87963995 5.97973633 87.29345703 C4.71474426 82.32624996 4.49748448 77.37727402 4.25390625 72.2734375 C4.13738133 70.16666603 4.02084446 68.05989522 3.90429688 65.953125 C3.73308867 62.68729815 3.56486452 59.42133481 3.39819336 56.15527344 C2.75365445 43.73532189 1.88880809 31.47530747 -0.0400238 19.17953491 C-1.05074714 12.58575897 -1.15781314 6.61208949 0 0 Z " fill="#120202" transform="translate(1143,761)"/>
<path d="M0 0 C1.32 0.33 2.64 0.66 4 1 C-5.39237825 23.34247554 -15.37066422 45.30069858 -26.77441406 66.69238281 C-34.40635886 81.06233146 -41.04321017 95.85721322 -47 111 C-49.59109092 104.42918876 -44.63283927 96.08107327 -42 90 C-36.99816076 79.30733899 -31.55971432 68.82223046 -26.1875 58.3125 C-23.33661975 52.73082888 -20.49340949 47.14537889 -17.66796875 41.55078125 C-17.32782619 40.87740849 -16.98768364 40.20403572 -16.63723373 39.51025772 C-6.75493662 20.35701588 -6.75493662 20.35701588 0 0 Z " fill="#110202" transform="translate(946,866)"/>
<path d="M0 0 C-1.67607384 5.02822151 -6.18434045 6.65825634 -10.76416016 8.96582031 C-26.51342022 16.25058397 -43.52402396 20.77165044 -60.23388672 25.24121094 C-64.51315636 26.41508296 -68.75802108 27.69862251 -73 29 C-73.66 28.34 -74.32 27.68 -75 27 C-73.8346875 26.67128906 -72.669375 26.34257813 -71.46875 26.00390625 C-50.10848463 19.85832415 -21.21615115 0 0 0 Z " fill="#0E0202" transform="translate(1254,1521)"/>
<path d="M0 0 C2.390625 0.8515625 2.390625 0.8515625 4.390625 2.8515625 C4.578125 6.4140625 4.578125 6.4140625 4.390625 9.8515625 C3.390625 10.8515625 3.390625 10.8515625 0.015625 11.1640625 C-6.02425345 11.10935346 -13.28182407 9.17911343 -17.609375 4.8515625 C-17.359375 1.7890625 -17.359375 1.7890625 -16.609375 -1.1484375 C-11.30298861 -3.8016307 -5.382952 -1.45604439 0 0 Z " fill="#C91A19" transform="translate(1313.609375,594.1484375)"/>
<path d="M0 0 C3.1875 0.375 3.1875 0.375 5.375 2.5625 C5.973125 3.490625 6.57125 4.41875 7.1875 5.375 C8.0846875 6.6125 8.0846875 6.6125 9 7.875 C10.43206948 10.88988313 10.22784333 12.25397001 9.1875 15.375 C8.1875 16.375 8.1875 16.375 5.828125 16.71484375 C3.1875 16.375 3.1875 16.375 1.421875 14.44140625 C0.68710937 13.20197266 0.68710937 13.20197266 -0.0625 11.9375 C-0.56265625 11.11378906 -1.0628125 10.29007813 -1.578125 9.44140625 C-1.98546875 8.75949219 -2.3928125 8.07757812 -2.8125 7.375 C-3.1425 7.045 -3.4725 6.715 -3.8125 6.375 C-3.9375 3.875 -3.9375 3.875 -3.8125 1.375 C-2.8125 0.375 -2.8125 0.375 0 0 Z " fill="#C91A19" transform="translate(530.8125,1282.625)"/>
<path d="M0 0 C0.721875 0.268125 1.44375 0.53625 2.1875 0.8125 C2.9375 2.9375 2.9375 2.9375 3.1875 5.8125 C1.52445563 8.95380604 0.03977479 11.1732939 -2.8125 13.3125 C-4.8125 13.8125 -4.8125 13.8125 -7.0625 12.9375 C-7.64 12.56625 -8.2175 12.195 -8.8125 11.8125 C-8.56219935 7.55738892 -8.15040677 5.26304235 -5.5625 1.8125 C-2.8125 -0.1875 -2.8125 -0.1875 0 0 Z " fill="#CB1A1A" transform="translate(1504.8125,1293.1875)"/>
<path d="M0 0 C0.66 0.99 1.32 1.98 2 3 C1.3125 5.21386719 1.3125 5.21386719 0 7.796875 C-0.70902466 9.22567993 -0.70902466 9.22567993 -1.43237305 10.68334961 C-1.94968994 11.69534424 -2.46700684 12.70733887 -3 13.75 C-4.03106009 15.82758689 -5.05840496 17.90702168 -6.08203125 19.98828125 C-6.83540771 21.5189624 -6.83540771 21.5189624 -7.60400391 23.08056641 C-10.39784528 28.92330078 -12.73004569 34.93721064 -15 41 C-16.72983877 36.89032244 -15.13041507 33.44685064 -13.6875 29.5 C-13.42694824 28.77111572 -13.16639648 28.04223145 -12.89794922 27.29125977 C-9.38027552 17.83813381 -4.68425149 8.91675765 0 0 Z " fill="#1B0303" transform="translate(914,936)"/>
<path d="M0 0 C4.290767 1.48618745 7.78719387 3.73179922 11.4375 6.375 C12.34024658 7.02505005 12.34024658 7.02505005 13.26123047 7.68823242 C17.86403265 11.05650029 22.28244642 14.61599852 26.625 18.3125 C27.20435303 18.80347168 27.78370605 19.29444336 28.38061523 19.80029297 C31.64156258 22.62775946 34.40386473 25.52371155 37 29 C34 29 34 29 32.44921875 27.63671875 C31.57716797 26.67185547 31.57716797 26.67185547 30.6875 25.6875 C22.22398649 16.89786946 11.94555848 9.87911732 2.1328125 2.6796875 C1.42898438 2.12539063 0.72515625 1.57109375 0 1 C0 0.67 0 0.34 0 0 Z " fill="#1C0304" transform="translate(1367,690)"/>
<path d="M0 0 C0.66 0.33 1.32 0.66 2 1 C-2.61940682 5.67012025 -7.24663952 10.3323789 -11.87939453 14.98925781 C-13.45445094 16.57437122 -15.02770757 18.16127512 -16.59912109 19.75 C-18.85824254 22.03338238 -21.12375971 24.31024598 -23.390625 26.5859375 C-24.09181458 27.29744965 -24.79300415 28.00896179 -25.51544189 28.74203491 C-26.17582458 29.40256866 -26.83620728 30.06310242 -27.51660156 30.74365234 C-28.09396057 31.32545258 -28.67131958 31.90725281 -29.26617432 32.50668335 C-31.07633274 34.06574418 -32.82607912 35.02850654 -35 36 C-33.46870192 32.22736059 -31.23469103 30.21734884 -28.1875 27.5625 C-21.79983047 21.88948442 -15.77393117 15.86508214 -9.75 9.8125 C-9.26880707 9.32935333 -8.78761414 8.84620667 -8.2918396 8.34841919 C-5.52452171 5.56895023 -2.76076208 2.78597983 0 0 Z " fill="#C21918" transform="translate(673,746)"/>
<path d="M0 0 C1.25001421 3.75004262 0.57644539 4.58475721 -1.01953125 8.11328125 C-1.46490234 9.11423828 -1.91027344 10.11519531 -2.36914062 11.14648438 C-2.84544922 12.19126953 -3.32175781 13.23605469 -3.8125 14.3125 C-4.73795713 16.37006974 -5.66120212 18.42863617 -6.58203125 20.48828125 C-6.99686768 21.40134033 -7.4117041 22.31439941 -7.83911133 23.25512695 C-9.05446472 26.12877956 -10.05029825 29.02907507 -11 32 C-11.99 31.67 -12.98 31.34 -14 31 C-13.37636093 26.83004576 -11.9616262 23.57485553 -10.05859375 19.82421875 C-9.47529297 18.66728516 -8.89199219 17.51035156 -8.29101562 16.31835938 C-7.67330794 15.10800613 -7.05546773 13.8977205 -6.4375 12.6875 C-5.81520144 11.45796241 -5.19345082 10.22814733 -4.57226562 8.99804688 C-3.05354488 5.99592448 -1.5292898 2.99674847 0 0 Z " fill="#180303" transform="translate(596,886)"/>
<path d="M0 0 C1.13096604 3.39289812 0.90583963 3.93973332 -0.328125 7.1328125 C-0.78638672 8.34324219 -0.78638672 8.34324219 -1.25390625 9.578125 C-1.58261719 10.41859375 -1.91132812 11.2590625 -2.25 12.125 C-2.88160889 13.77290138 -3.51182303 15.42133803 -4.140625 17.0703125 C-4.45064453 17.88016602 -4.76066406 18.69001953 -5.08007812 19.52441406 C-6.4890117 23.31597096 -7.75550871 27.15181045 -9 31 C-9.99 30.67 -10.98 30.34 -12 30 C-11.35990983 26.03526237 -10.1301723 22.7055586 -8.49609375 19.04296875 C-8.00302734 17.93115234 -7.50996094 16.81933594 -7.00195312 15.67382812 C-6.48568359 14.52333984 -5.96941406 13.37285156 -5.4375 12.1875 C-4.91736328 11.01767578 -4.39722656 9.84785156 -3.86132812 8.64257812 C-2.57872888 5.75967157 -1.29147717 2.87893769 0 0 Z " fill="#1D0303" transform="translate(726,1365)"/>
<path d="M0 0 C0.33 0 0.66 0 1 0 C3.11161731 17.85649203 3.11161731 17.85649203 4 26 C3.01 26.33 2.02 26.66 1 27 C-0.5364591 17.70505737 -1.29582 9.40345055 0 0 Z " fill="#280505" transform="translate(1143,761)"/>
<path d="M0 0 C6.08882416 1.59806348 11.0664755 4.8611283 16.375 8.125 C17.30183594 8.68832031 18.22867187 9.25164063 19.18359375 9.83203125 C21.45903155 11.21606043 23.7309763 12.60548922 26 14 C25.01 14.495 25.01 14.495 24 15 C21.47802734 13.92016602 21.47802734 13.92016602 18.3359375 12.25390625 C17.21445313 11.66416016 16.09296875 11.07441406 14.9375 10.46679688 C13.74990859 9.83220229 12.56240977 9.19743439 11.375 8.5625 C10.18007348 7.93090984 8.98476543 7.30004094 7.7890625 6.66992188 C4.85553392 5.12035638 1.92614478 3.56345147 -1 2 C-0.67 1.34 -0.34 0.68 0 0 Z " fill="#200404" transform="translate(1281,636)"/>
<path d="M0 0 C1.85431641 0.2784375 1.85431641 0.2784375 3.74609375 0.5625 C4.67550781 0.706875 5.60492187 0.85125 6.5625 1 C6.5625 1.99 6.5625 2.98 6.5625 4 C-1.45864786 3.15566865 -9.44611581 2.08446979 -17.4375 1 C-12.10434038 -2.55543975 -6.08956035 -0.92793301 0 0 Z " fill="#1F0404" transform="translate(987.4375,1545)"/>
<path d="M0 0 C-2.93395402 1.57388221 -5.78132939 2.60939727 -8.984375 3.5078125 C-9.91894531 3.77207031 -10.85351562 4.03632812 -11.81640625 4.30859375 C-12.78449219 4.57800781 -13.75257812 4.84742188 -14.75 5.125 C-16.22533203 5.54072266 -16.22533203 5.54072266 -17.73046875 5.96484375 C-20.15266207 6.64682051 -22.57583578 7.325069 -25 8 C-25.66 7.34 -26.32 6.68 -27 6 C-26.40461426 5.823479 -25.80922852 5.64695801 -25.19580078 5.46508789 C-22.50496153 4.66613825 -19.81497491 3.86435473 -17.125 3.0625 C-16.18785156 2.78470703 -15.25070312 2.50691406 -14.28515625 2.22070312 C-13.38925781 1.95322266 -12.49335937 1.68574219 -11.5703125 1.41015625 C-10.74289551 1.16402588 -9.91547852 0.91789551 -9.06298828 0.66430664 C-5.32455395 -0.53951346 -3.97828024 -0.94222427 0 0 Z " fill="#360706" transform="translate(1206,1542)"/>
<path d="M0 0 C-0.556875 0.18175781 -1.11375 0.36351562 -1.6875 0.55078125 C-5.62088784 1.84640731 -9.51672523 3.18148197 -13.375 4.6875 C-17 6 -17 6 -20 6 C-20.33 5.01 -20.66 4.02 -21 3 C-18.25244513 2.30111323 -15.50268803 1.6156012 -12.75 0.9375 C-11.97269531 0.73833984 -11.19539063 0.53917969 -10.39453125 0.33398438 C-9.64042969 0.15029297 -8.88632813 -0.03339844 -8.109375 -0.22265625 C-7.07248535 -0.48187866 -7.07248535 -0.48187866 -6.01464844 -0.74633789 C-3.74929191 -1.03156637 -2.1631688 -0.68076195 0 0 Z " fill="#1B0303" transform="translate(1181,1550)"/>
<path d="M0 0 C-3.48374311 1.93252416 -7.04977934 2.98074405 -10.875 4.0625 C-12.06867187 4.40410156 -13.26234375 4.74570312 -14.4921875 5.09765625 C-17.65697568 5.911761 -20.76968838 6.5208865 -24 7 C-20.93408962 3.93408962 -17.11439035 2.82952388 -13.125 1.25 C-12.30902344 0.90839844 -11.49304688 0.56679688 -10.65234375 0.21484375 C-9.86214844 -0.09839844 -9.07195313 -0.41164063 -8.2578125 -0.734375 C-7.5373877 -1.02538086 -6.81696289 -1.31638672 -6.07470703 -1.61621094 C-3.41571952 -2.10808295 -2.25120628 -1.40106051 0 0 Z " fill="#270505" transform="translate(847,599)"/>
<path d="M0 0 C1.67542976 0.28604898 3.34385343 0.61781233 5 1 C5.625 2.875 5.625 2.875 6 5 C5.34 5.66 4.68 6.32 4 7 C1.375 6.625 1.375 6.625 -1 6 C-1.042721 4.33388095 -1.04063832 2.66617115 -1 1 C-0.67 0.67 -0.34 0.34 0 0 Z " fill="#BD1818" transform="translate(957,1490)"/>
<path d="M0 0 C1.67542976 0.28604898 3.34385343 0.61781233 5 1 C5 2.65 5 4.3 5 6 C2.625 6.625 2.625 6.625 0 7 C-0.66 6.34 -1.32 5.68 -2 5 C-1.46428571 1.46428571 -1.46428571 1.46428571 0 0 Z " fill="#BB1818" transform="translate(984,514)"/>
<path d="M0 0 C2.97 0.495 2.97 0.495 6 1 C5.67 2.65 5.34 4.3 5 6 C3.125 6.625 3.125 6.625 1 7 C0.34 6.34 -0.32 5.68 -1 5 C-0.625 2.375 -0.625 2.375 0 0 Z " fill="#C11819" transform="translate(1418,1444)"/>
<path d="M0 0 C4.50419983 0.85409827 7.03017333 3.47747469 10.25 6.5625 C10.80429688 7.08263672 11.35859375 7.60277344 11.9296875 8.13867188 C13.29256828 9.41930985 14.64711683 10.7088049 16 12 C15.34 12.66 14.68 13.32 14 14 C9.33333333 9.33333333 4.66666667 4.66666667 0 0 Z " fill="#190303" transform="translate(1388,706)"/>
<path d="M0 0 C0.66 0.33 1.32 0.66 2 1 C2 1.66 2 2.32 2 3 C-0.45404224 4.19716659 -2.91251679 5.3829346 -5.375 6.5625 C-6.42300781 7.07586914 -6.42300781 7.07586914 -7.4921875 7.59960938 C-9.30052216 8.46030712 -11.14851956 9.23652436 -13 10 C-13.66 9.67 -14.32 9.34 -15 9 C-12.54732365 7.46931512 -10.08866106 5.95031377 -7.625 4.4375 C-6.92632813 3.99986328 -6.22765625 3.56222656 -5.5078125 3.11132812 C-3.70814097 2.01249022 -1.85677657 0.99932133 0 0 Z " fill="#1E0404" transform="translate(770,703)"/>
<path d="M0 0 C1.54483204 4.63449611 0.00198936 8.64095148 -2 13 C-4.6875 14.625 -4.6875 14.625 -7 15 C-5.45454854 9.52067211 -2.84456788 4.88570819 0 0 Z " fill="#1E0404" transform="translate(733,1246)"/>
<path d="M0 0 C2 1 2 1 3.0703125 3.8359375 C3.41835937 5.00382812 3.76640625 6.17171875 4.125 7.375 C4.47820312 8.53773437 4.83140625 9.70046875 5.1953125 10.8984375 C6 14 6 14 6 17 C5.01 17 4.02 17 3 17 C2.01 11.39 1.02 5.78 0 0 Z " fill="#310606" transform="translate(1162,1195)"/>
<path d="M0 0 C0.66 0 1.32 0 2 0 C1.67 4.62 1.34 9.24 1 14 C0.01 13.67 -0.98 13.34 -2 13 C-1.34 8.71 -0.68 4.42 0 0 Z " fill="#B61717" transform="translate(1507,1174)"/>
<path d="M0 0 C1.49341969 2.98683937 0.40648676 4.95160978 -0.4375 8.125 C-0.72496094 9.22070312 -1.01242187 10.31640625 -1.30859375 11.4453125 C-1.65083984 12.70988281 -1.65083984 12.70988281 -2 14 C-2.99 14 -3.98 14 -5 14 C-5.33 13.34 -5.66 12.68 -6 12 C-4.78515625 9.1796875 -4.78515625 9.1796875 -3.0625 5.875 C-2.49660156 4.77929688 -1.93070313 3.68359375 -1.34765625 2.5546875 C-0.90292969 1.71164062 -0.45820312 0.86859375 0 0 Z " fill="#2E0506" transform="translate(790,1263)"/>
<path d="M0 0 C0.66 0.33 1.32 0.66 2 1 C1.37321829 4.66172475 0.35548154 7.8818995 -1.0625 11.3125 C-1.42472656 12.19550781 -1.78695312 13.07851563 -2.16015625 13.98828125 C-2.43730469 14.65214844 -2.71445312 15.31601562 -3 16 C-4.49828872 12.11764181 -3.43110582 9.56550712 -2.0625 5.75 C-1.68222656 4.67234375 -1.30195312 3.5946875 -0.91015625 2.484375 C-0.45962891 1.25460937 -0.45962891 1.25460937 0 0 Z " fill="#310606" transform="translate(902,961)"/>
<path d="M0 0 C4.62 0 9.24 0 14 0 C14 0.66 14 1.32 14 2 C12.41986783 2.25028811 10.83557694 2.47440946 9.25 2.6875 C7.92742188 2.87892578 7.92742188 2.87892578 6.578125 3.07421875 C4 3 4 3 0 0 Z " fill="#3B0708" transform="translate(948,622)"/>
<path d="M0 0 C0.99 0.33 1.98 0.66 3 1 C0.36 5.62 -2.28 10.24 -5 15 C-5.33 14.34 -5.66 13.68 -6 13 C-5.10333658 10.75689987 -4.10853317 8.55245679 -3.0625 6.375 C-2.49660156 5.18648437 -1.93070313 3.99796875 -1.34765625 2.7734375 C-0.90292969 1.85820313 -0.45820312 0.94296875 0 0 Z " fill="#2B0505" transform="translate(1448,1262)"/>
<path d="M0 0 C0.66 0 1.32 0 2 0 C0.48446596 3.47775179 -1.5773456 5.9557984 -4.125 8.75 C-5.21167969 9.94882812 -5.21167969 9.94882812 -6.3203125 11.171875 C-6.87460937 11.77515625 -7.42890625 12.3784375 -8 13 C-8 9.03990775 -6.59219817 7.85479241 -4.125 4.8125 C-3.40570312 3.91144531 -2.68640625 3.01039063 -1.9453125 2.08203125 C-1.30335938 1.39496094 -0.66140625 0.70789063 0 0 Z " fill="#2D0506" transform="translate(599,757)"/>
<path d="M0 0 C0.66 0.33 1.32 0.66 2 1 C0.75645114 2.29787866 -0.4951264 3.58806759 -1.75 4.875 C-2.44609375 5.59429688 -3.1421875 6.31359375 -3.859375 7.0546875 C-5.85122217 8.86479679 -7.5427658 9.94848086 -10 11 C-8.55218207 7.55571735 -6.72305391 5.63869038 -3.875 3.25 C-3.15054688 2.63640625 -2.42609375 2.0228125 -1.6796875 1.390625 C-0.84824219 0.70226562 -0.84824219 0.70226562 0 0 Z " fill="#841111" transform="translate(648,771)"/>
<path d="M0 0 C0.66 0.66 1.32 1.32 2 2 C-0.97 4.97 -3.94 7.94 -7 11 C-7 7.22089522 -6.00296038 6.53893899 -3.5 3.8125 C-2.8503125 3.09707031 -2.200625 2.38164063 -1.53125 1.64453125 C-1.0259375 1.10183594 -0.520625 0.55914063 0 0 Z " fill="#140202" transform="translate(651,765)"/>
<path d="M0 0 C1 4 1 4 0.22265625 5.921875 C-0.8515625 7.61458333 -1.92578125 9.30729167 -3 11 C-3.66 10.34 -4.32 9.68 -5 9 C-3.35 6.03 -1.7 3.06 0 0 Z " fill="#220404" transform="translate(733,1177)"/>
<path d="M0 0 C2.18975773 3.28463659 2.99806563 6.20696275 4 10 C3.34 10 2.68 10 2 10 C1.67 10.66 1.34 11.32 1 12 C0.01751476 7.9472484 -0.08159574 4.16138263 0 0 Z " fill="#390707" transform="translate(1129,1164)"/>
<path d="M0 0 C4.67105792 1.55701931 8.08705685 4.08447373 12 7 C11.34 7.66 10.68 8.32 10 9 C8.33043913 7.69118353 6.66441696 6.37785174 5 5.0625 C4.071875 4.33160156 3.14375 3.60070312 2.1875 2.84765625 C1.465625 2.23792969 0.74375 1.62820313 0 1 C0 0.67 0 0.34 0 0 Z " fill="#3A0707" transform="translate(1367,690)"/>
<path d="M0 0 C0.66 0.33 1.32 0.66 2 1 C1.35455571 4.48539917 -0.10134397 7.02819057 -2 10 C-3 8 -3 8 -2.44140625 6.0546875 C-2.15136719 5.33539062 -1.86132812 4.61609375 -1.5625 3.875 C-1.27503906 3.15054687 -0.98757813 2.42609375 -0.69140625 1.6796875 C-0.46324219 1.12539062 -0.23507812 0.57109375 0 0 Z " fill="#260404" transform="translate(1466,1276)"/>
</svg>
